<svg width="57" height="57" viewBox="0 0 57 57" fill="none" xmlns="http://www.w3.org/2000/svg">
  <g clip-path="url(#clip0)" filter="url(#filter0_d)">
    <path
      d="M0.00340271 41.3638C0.0599365 42.0189 1.12997 45.9761 6.40843 49.4002C7.14063 49.8769 7.87421 50.2889 8.5871 50.6447H8.59675C13.3402 53.0016 17.5569 53.0016 17.5569 53.0016C35.946 52.4124 42.8295 45.4994 42.8295 45.4994C50.306 41.9544 52.6722 35.3395 51.8462 32.7395C51.0106 30.1394 49.5917 29.1944 49.5917 29.1944C49.2346 24.3486 47.9853 16.3039 44.6042 13.4786C40.6509 10.167 35.269 8.53941 29.8692 7.91308C20.938 6.86509 11.9585 8.56825 9.28207 10.0269C7.32816 11.0845 2.16277 15.874 1.80563 22.254C1.45815 28.5873 2.31307 38.4107 2.31307 38.4107C2.31307 38.4107 -0.0531349 40.7182 0.00340271 41.3638Z"
      fill="url(#paint0_linear)"/>
    <path
      d="M8.43959 40.1975C8.3279 40.7016 4.24771 40.8129 1.33959 39.4201C1.33959 39.4201 1.27754 38.4257 2.03456 37.7609C2.7902 37.0961 1.44438 26.8085 1.44438 26.8085C1.44438 26.8085 1.8553 24.6877 2.70057 23.9351C2.70057 23.9337 10.4707 30.995 8.43959 40.1975Z"
      fill="#83F3BB"/>
    <path
      d="M0.237784 32.2323V32.2419C0.454273 35.6936 2.05932 38.6686 2.05932 38.6686C2.9239 39.174 4.9895 39.8004 6.46355 39.9322C7.38329 40.0078 8.06998 39.8951 8.12652 39.446C8.33336 37.7813 8.25751 36.2375 7.99414 34.8241C7.98449 34.8145 7.98449 34.8145 7.99414 34.8049C7.90038 34.3283 7.79696 33.8599 7.65631 33.4108C7.59978 33.2143 7.55289 33.0454 7.50601 32.9149C7.4867 32.8311 7.45913 32.746 7.43155 32.6622C7.4219 32.6526 7.4219 32.643 7.4219 32.643V32.6347C5.85408 28.0513 2.61364 25.3564 2.61364 25.3564C0.567343 27.3494 0.0874834 29.9028 0.237784 32.2323Z"
      fill="url(#paint1_linear)"/>
    <path
      d="M19.6183 39.9325C20.4359 41.0917 34.1961 44.2536 41.4643 33.5071C41.4643 33.5071 39.8041 25.1932 34.8207 22.9489C29.8387 20.7032 25.4786 22.9613 22.4822 27.7768C19.6017 32.4056 19.0667 39.1496 19.6183 39.9325Z"
      fill="#83F3BB"/>
    <path
      d="M19.8762 39.5945C20.3367 40.2964 27.9993 41.9432 34.0665 39.0616C36.7719 37.7897 39.1657 35.6003 40.4536 32.0264C40.4536 32.0264 39.1299 28.2094 35.9832 25.8992V25.8895C34.7436 24.9817 33.2226 24.299 31.3818 24.1685C22.6285 23.5793 18.5055 37.5274 19.8762 39.5945Z"
      fill="url(#paint2_linear)"/>
    <path
      d="M19.8762 39.5945C20.3367 40.2964 27.9993 41.9432 34.0665 39.0616C38.1701 34.4493 35.9818 25.8992 35.9818 25.8992V25.8895C34.7422 24.9817 33.2212 24.299 31.3804 24.1685C22.6285 23.5793 18.5055 37.5274 19.8762 39.5945Z"
      fill="url(#paint3_linear)"/>
    <path
      d="M2.06066 38.6686C2.92524 39.1741 4.99084 39.8004 6.4649 39.9322C7.30052 38.7538 7.75142 36.7141 7.99548 34.8241C7.98583 34.8145 7.98583 34.8145 7.99548 34.8049C6.88684 28.9207 2.6136 25.3564 2.6136 25.3564C-2.45664 30.3149 2.06066 38.6686 2.06066 38.6686Z"
      fill="url(#paint4_linear)"/>
    <path
      d="M14.1235 43.4525C14.1235 43.4525 12.7184 44.028 10.6486 44.0088C8.58026 43.9882 7.99561 43.2259 7.99561 43.2259C7.99561 43.2259 11.2429 41.2741 14.1235 43.4525Z"
      fill="#00FFFF"/>
    <path d="M14.3565 43.4912C14.3565 43.4912 12.5184 43.0188 11.8648 44.7906L14.3565 43.4912Z"
          fill="url(#paint5_linear)"/>
    <path d="M9.19513 44.7904C9.19513 44.7904 9.3013 43.2246 7.99548 43.2246L9.19513 44.7904Z"
          fill="url(#paint6_linear)"/>
    <path
      d="M15.8387 47.0195C15.8387 47.0195 14.326 47.8697 11.8647 48.0346C9.37298 48.2021 7.55006 47.0195 7.55006 47.0195C7.76104 47.1377 9.18821 49.3463 11.8647 49.0427C14.8293 48.7062 15.8387 47.0195 15.8387 47.0195Z"
      fill="#006A69"/>
    <path
      d="M51.8435 32.7377C51.8435 32.7377 51.6808 31.8655 49.9006 31.9987C48.1204 32.1319 43.6721 36.2525 42.8268 40.2412C41.9815 44.2299 42.8268 45.5004 42.8268 45.5004C42.8268 45.5004 52.675 41.5405 51.8435 32.7377Z"
      fill="#83F3BB"/>
    <path
      d="M49.5007 33.5498C49.5007 33.5498 50.1391 39.9216 43.5107 42.0464C43.5107 42.0478 44.4291 35.8985 49.5007 33.5498Z"
      fill="url(#paint7_linear)"/>
    <path opacity="0.3"
          d="M8.59672 50.6431C13.3402 53.0001 17.5569 53.0001 17.5569 53.0001C35.946 52.4108 42.8295 45.4979 42.8295 45.4979C50.3059 41.9528 52.6515 35.1539 51.8241 32.5525C50.9885 29.9524 49.5917 29.1915 49.5917 29.1915C49.2345 24.3457 47.9852 16.301 44.6041 13.4757C40.6508 10.1641 35.2689 8.53648 29.8691 7.91016C33.053 8.5928 39.7587 10.5569 43.5148 15.4219C48.5671 21.9613 48.0528 37.0123 38.5107 44.1134C28.5082 51.5592 10.7285 51.1197 8.59672 50.6431Z"
          fill="url(#paint8_linear)"/>
    <path opacity="0.5"
          d="M37.933 27.7426C37.933 27.7426 38.9134 30.079 38.3205 31.6736C37.7275 33.2683 29.0666 35.8684 23.7882 35.9274C18.5083 35.9865 22.07 30.4539 22.07 30.4539C22.07 30.4539 24.4018 24.5684 30.2994 24.1715C36.1983 23.7745 37.933 27.7426 37.933 27.7426Z"
          fill="url(#paint9_linear)"/>
    <path opacity="0.5"
          d="M0.23781 32.2323V32.2419C1.89112 34.1593 7.56395 36.0768 7.89213 35.5438C8.09897 35.2073 7.86455 34.1593 7.65772 33.4108C7.60118 33.2144 7.5543 33.0454 7.50741 32.9149C7.47018 32.7844 7.44123 32.6993 7.43296 32.6622C7.4233 32.6526 7.4233 32.643 7.4233 32.643V32.6347C5.85549 28.0513 2.61505 25.3564 2.61505 25.3564C0.567368 27.3494 0.0875092 29.9028 0.23781 32.2323Z"
          fill="url(#paint10_linear)"/>
    <path
      d="M35.3779 33.2335C35.3075 32.4437 31.3542 34.0466 31.3735 34.6331C31.3928 35.221 35.451 34.0342 35.3779 33.2335Z"
      fill="white"/>
    <path
      d="M30.2994 34.9037C30.2994 34.9037 28.4917 34.6509 28.1414 35.3089C28.1414 35.3102 29.6183 35.8789 30.2994 34.9037Z"
      fill="white"/>
    <path
      d="M6.40839 35.4752C6.40839 35.4752 4.56892 34.4218 4.00081 34.908C4.00081 34.9066 5.05843 35.6689 6.40839 35.4752Z"
      fill="white"/>
    <path opacity="0.3"
          d="M42.8282 15.4259C42.8282 15.4259 39.3382 17.9957 26.0028 19.3253C12.666 20.6548 3.47691 16.4766 3.47691 16.4766C3.47691 16.4766 5.9617 9.20381 15.7644 8.23823C15.7644 8.23823 35.087 4.61351 42.8282 15.4259Z"
          fill="url(#paint11_linear)"/>
    <path
      d="M11.6027 15.4218C11.8661 9.13522 15.0679 6.12309 15.0679 6.12309L15.7629 8.23694C20.5436 12.1281 27.7649 7.77818 28.0848 7.59138C28.0945 7.58177 28.0945 7.58177 28.0945 7.58177C25.3711 -0.445079 15.5092 0.00406137 15.5092 0.00406137C9.37581 3.99002 11.6027 15.4218 11.6027 15.4218Z"
      fill="url(#paint12_linear)"/>
    <path
      d="M15.068 6.12324L15.763 8.23709C20.5437 12.1283 27.765 7.77833 28.0849 7.59153C27.8408 7.69455 26.3378 4.96811 23.551 3.90501C21.5309 3.13446 19.4267 2.75537 19.4267 2.75537C16.5517 4.13988 15.068 6.12324 15.068 6.12324Z"
      fill="url(#paint13_radial)"/>
  </g>
  <defs>
    <filter id="filter0_d" x="0.00195312" y="0" width="56" height="57" filterUnits="userSpaceOnUse"
            color-interpolation-filters="sRGB">
      <feFlood flood-opacity="0" result="BackgroundImageFix"/>
      <feColorMatrix in="SourceAlpha" type="matrix" values="0 0 0 0 0 0 0 0 0 0 0 0 0 0 0 0 0 0 127 0"/>
      <feOffset dx="4" dy="4"/>
      <feColorMatrix type="matrix" values="0 0 0 0 0 0 0 0 0 0 0 0 0 0 0 0 0 0 0.25 0"/>
      <feBlend mode="normal" in2="BackgroundImageFix" result="effect1_dropShadow"/>
      <feBlend mode="normal" in="SourceGraphic" in2="effect1_dropShadow" result="shape"/>
    </filter>
    <linearGradient id="paint0_linear" x1="26.0022" y1="53.0008" x2="26.0022" y2="7.58564"
                    gradientUnits="userSpaceOnUse">
      <stop stop-color="#00EFF1"/>
      <stop offset="1" stop-color="#0098FF"/>
    </linearGradient>
    <linearGradient id="paint1_linear" x1="4.22931" y1="39.953" x2="4.22931" y2="25.3566"
                    gradientUnits="userSpaceOnUse">
      <stop stop-color="#4C4862"/>
      <stop offset="1" stop-color="#1F345A"/>
    </linearGradient>
    <linearGradient id="paint2_linear" x1="30.0355" y1="40.7023" x2="30.0355" y2="24.1505"
                    gradientUnits="userSpaceOnUse">
      <stop stop-color="#4C4862"/>
      <stop offset="1" stop-color="#1F345A"/>
    </linearGradient>
    <linearGradient id="paint3_linear" x1="28.0918" y1="40.7023" x2="28.0918" y2="24.1505"
                    gradientUnits="userSpaceOnUse">
      <stop stop-color="#332F4C"/>
      <stop offset="1" stop-color="#001843"/>
    </linearGradient>
    <linearGradient id="paint4_linear" x1="4.10131" y1="39.9315" x2="4.10131" y2="25.3566"
                    gradientUnits="userSpaceOnUse">
      <stop stop-color="#332F4C"/>
      <stop offset="1" stop-color="#001843"/>
    </linearGradient>
    <linearGradient id="paint5_linear" x1="13.1108" y1="44.791" x2="13.1108" y2="43.434" gradientUnits="userSpaceOnUse">
      <stop stop-color="#332F4C"/>
      <stop offset="1" stop-color="#001843"/>
    </linearGradient>
    <linearGradient id="paint6_linear" x1="8.59668" y1="44.7908" x2="8.59668" y2="43.2252"
                    gradientUnits="userSpaceOnUse">
      <stop stop-color="#332F4C"/>
      <stop offset="1" stop-color="#001843"/>
    </linearGradient>
    <linearGradient id="paint7_linear" x1="46.5144" y1="42.0476" x2="46.5144" y2="33.5504"
                    gradientUnits="userSpaceOnUse">
      <stop stop-color="#332F4C"/>
      <stop offset="1" stop-color="#001843"/>
    </linearGradient>
    <linearGradient id="paint8_linear" x1="30.2894" y1="53.0006" x2="30.2894" y2="7.90961"
                    gradientUnits="userSpaceOnUse">
      <stop stop-color="#A6CFE8"/>
      <stop offset="1" stop-color="#455CAF"/>
    </linearGradient>
    <linearGradient id="paint9_linear" x1="29.7028" y1="35.9291" x2="29.7028" y2="24.1447"
                    gradientUnits="userSpaceOnUse">
      <stop stop-color="#004077"/>
      <stop offset="0.1857" stop-color="#003767"/>
      <stop offset="0.5499" stop-color="#00203C"/>
      <stop offset="1"/>
    </linearGradient>
    <linearGradient id="paint10_linear" x1="4.09269" y1="35.6346" x2="4.09269" y2="25.3566"
                    gradientUnits="userSpaceOnUse">
      <stop stop-color="#004077"/>
      <stop offset="0.1857" stop-color="#003767"/>
      <stop offset="0.5499" stop-color="#00203C"/>
      <stop offset="1"/>
    </linearGradient>
    <linearGradient id="paint11_linear" x1="23.1521" y1="19.5865" x2="23.1521" y2="7.65407"
                    gradientUnits="userSpaceOnUse">
      <stop stop-color="#2F5448"/>
      <stop offset="0.2491" stop-color="#26443A"/>
      <stop offset="0.7352" stop-color="#0E1A16"/>
      <stop offset="1"/>
    </linearGradient>
    <linearGradient id="paint12_linear" x1="19.6513" y1="15.4215" x2="19.6513" y2="-5.99345e-05"
                    gradientUnits="userSpaceOnUse">
      <stop stop-color="#FFCC00"/>
      <stop offset="1" stop-color="#FFBD00"/>
    </linearGradient>
    <radialGradient id="paint13_radial" cx="0" cy="0" r="1" gradientUnits="userSpaceOnUse"
                    gradientTransform="translate(21.5762 6.30249) rotate(180) scale(5.24619 5.22569)">
      <stop stop-color="#FFBD00"/>
      <stop offset="1" stop-color="#FF772C"/>
    </radialGradient>
    <clipPath id="clip0">
      <rect width="52" height="53" fill="white" transform="matrix(-1 0 0 1 52.002 0)"/>
    </clipPath>
  </defs>
</svg>
