<svg width="70" height="58" viewBox="0 0 70 58" fill="none" xmlns="http://www.w3.org/2000/svg">
  <g clip-path="url(#clip0)" filter="url(#filter0_d)">
    <path
      d="M56.4044 3.54761C59.482 15.0336 62.5597 26.5195 65.6369 38.0038C65.6356 38.0059 65.6327 38.0085 65.631 38.0089C44.2739 32.6764 31.2182 58.3186 9.86501 53.001C6.78692 41.5134 3.70883 30.0258 0.630733 18.5382C21.9851 23.8537 35.0433 -1.79268 56.4044 3.54761Z"
      fill="#2E4593"/>
    <path
      d="M64.6753 34.4162C64.9959 35.6124 65.3159 36.8069 65.6364 38.0031C65.6352 38.0052 65.6323 38.0077 65.6306 38.0082C63.4083 37.4544 61.2734 37.2331 59.2123 37.2807C52.1884 33.8911 45.7801 32.8121 39.5154 32.2559C38.8875 32.1993 38.2625 32.1472 37.6388 32.1C36.901 32.0427 36.165 31.992 35.4294 31.943C35.1822 31.926 34.9334 31.9095 34.6879 31.892C33.9401 31.8445 33.194 31.7965 32.4442 31.7477C32.1649 31.7251 31.8849 31.7063 31.6057 31.6837C31.3716 31.6685 31.1358 31.6538 30.9017 31.6386C30.431 31.6054 29.9577 31.5693 29.4872 31.5307C29.3348 31.5184 29.1798 31.5033 29.0264 31.4877C28.7969 31.4695 28.5653 31.4501 28.3353 31.4303C26.1072 31.2233 23.8621 30.9466 21.5755 30.5216C20.5469 30.3315 19.512 30.1112 18.4653 29.8533C13.1831 28.5505 7.64036 26.2887 1.59318 22.1309C1.27222 20.9331 0.951265 19.7352 0.630307 18.5374C0.641414 18.5185 0.654197 18.4991 0.664512 18.484C0.714144 18.5149 0.762543 18.548 0.810941 18.5811C2.96884 19.1025 5.0405 19.3089 7.04566 19.2603C14.2045 22.7112 20.7219 23.761 27.1017 24.3111C27.7292 24.366 28.3538 24.4165 28.977 24.462C29.1454 24.4735 29.3122 24.4855 29.4789 24.4975C30.4756 24.5687 31.4701 24.6316 32.465 24.6961C32.5644 24.7049 32.6634 24.712 32.7623 24.7191C33.1447 24.7442 33.5257 24.7714 33.908 24.7964C34.5085 24.8374 35.111 24.8796 35.7128 24.9255C35.816 24.9351 35.9183 24.9413 36.0215 24.9508C36.5429 24.9918 37.0668 25.0355 37.5911 25.081C38.1029 25.1262 38.6155 25.1748 39.129 25.2267C40.5099 25.3702 41.8975 25.5456 43.3001 25.7701C44.3216 25.9337 45.349 26.126 46.3868 26.3508C52.0969 27.5938 58.0846 29.8799 64.6753 34.4162Z"
      fill="#FCF5FF"/>
    <path
      d="M65.6188 37.9083C65.6336 37.9503 65.6485 37.9924 65.6633 38.0345C64.2341 37.6702 62.8398 37.4434 61.4784 37.339C53.4137 32.8683 46.2033 31.5863 39.1692 30.9618C38.5703 30.9063 37.9714 30.8578 37.3725 30.8093C37.3452 30.8078 37.3178 30.8062 37.2905 30.8047C36.6887 30.7588 36.0861 30.7166 35.4857 30.6756C35.1215 30.651 34.758 30.6227 34.3922 30.5985C33.7298 30.5546 33.0642 30.5117 32.4014 30.4661C31.7854 30.4275 31.1711 30.3885 30.5534 30.3433C30.4654 30.3368 30.3791 30.3298 30.2906 30.3216C29.9053 30.2921 29.5212 30.2604 29.1346 30.2259C28.9825 30.2152 28.8284 30.2034 28.676 30.1911C26.9892 30.0464 25.2927 29.8652 23.5772 29.613C22.5635 29.465 21.541 29.2909 20.5118 29.085C14.5092 27.8973 8.21494 25.6208 1.24474 20.8285C1.03313 20.0388 0.821962 19.2507 0.610352 18.4609C0.628541 18.4685 0.648407 18.4755 0.66492 18.4835C0.714995 18.5161 0.763394 18.5492 0.811792 18.5823C9.39006 24.433 16.9475 26.4737 24.206 27.3992C25.2153 27.5308 26.2196 27.6371 27.2192 27.7323C27.4921 27.7583 27.7659 27.7806 28.0379 27.8033C28.6655 27.8583 29.29 27.9087 29.9137 27.9559C30.1482 27.9727 30.3845 27.9891 30.619 28.006C31.0001 28.0331 31.3828 28.0598 31.7635 28.0853C32.4683 28.1338 33.169 28.1798 33.873 28.2249C34.7984 28.285 35.7222 28.3456 36.6499 28.414C36.7531 28.4236 36.8558 28.4314 36.959 28.441C37.2967 28.4674 37.6383 28.4945 37.9781 28.5221C38.1622 28.5383 38.3446 28.5549 38.5286 28.5711C39.344 28.643 40.1621 28.7249 40.9837 28.8199C48.6155 29.6897 56.5464 31.6623 65.6188 37.9083Z"
      fill="#F42525"/>
    <path
      d="M56.5877 4.23004C56.9082 5.42622 57.2282 6.62074 57.5483 7.81527C53.3804 9.2154 49.6411 12.229 46.1394 16.1156C45.3874 16.9511 44.6477 17.8257 43.9152 18.7338C42.2839 20.7611 40.6964 22.952 39.1307 25.2238C38.7708 25.7452 38.4122 26.2716 38.0541 26.7996C37.689 27.3419 37.3236 27.8896 36.9586 28.439C36.8873 28.5484 36.8155 28.6562 36.7438 28.7639C36.5801 29.0114 36.4151 29.261 36.2514 29.5085C35.9962 29.8974 35.741 30.2863 35.4845 30.6774C35.2173 31.0819 34.9526 31.4892 34.6854 31.8937C34.5135 32.1576 34.3416 32.4215 34.1709 32.6832C33.4639 33.7669 32.7581 34.8485 32.0484 35.9223C31.613 36.5844 31.1775 37.2394 30.7411 37.8911C26.5625 44.1142 22.267 49.8941 17.4332 53.672C15.0166 53.8414 12.5039 53.6594 9.86592 53.0027C9.60517 52.0296 9.34487 51.0581 9.08412 50.0849C14.3727 48.2995 18.9654 43.924 23.2668 38.4542C23.9932 37.53 24.7124 36.5723 25.4238 35.5919C26.4054 34.2452 27.3729 32.8526 28.335 31.4332C28.4959 31.1953 28.6576 30.9536 28.8176 30.7124C28.924 30.5529 29.0316 30.3912 29.1372 30.2284C29.4676 29.7379 29.7979 29.2403 30.1249 28.7436C30.2891 28.4978 30.4549 28.2515 30.6186 28.0039C31.336 26.9121 32.0488 25.8163 32.7645 24.7179C32.8346 24.6106 32.903 24.5037 32.9735 24.398C33.5894 23.4574 34.2042 22.5188 34.8207 21.5869C34.8982 21.4669 34.9765 21.3503 35.0562 21.2316C35.4133 20.6932 35.7721 20.1543 36.131 19.6226C40.7893 12.7149 45.603 6.3942 51.1547 2.82064C52.6954 2.86291 54.273 3.05643 55.9022 3.42914C56.1295 3.69405 56.359 3.96017 56.5877 4.23004Z"
      fill="#FCF5FF"/>
    <path
      d="M56.4693 4.36482C50.5092 6.42754 45.4293 11.7818 40.6535 18.2641C39.9365 19.2372 39.2275 20.2329 38.5221 21.2488C38.0537 21.9286 37.5832 22.6142 37.1184 23.3072C36.7533 23.8495 36.3879 24.3972 36.0229 24.9466C35.9532 25.0555 35.8798 25.1638 35.8102 25.2727C35.1627 26.2502 34.5192 27.2354 33.8744 28.2227C33.3833 28.9723 32.8935 29.7198 32.4037 30.4673C32.1386 30.873 31.8723 31.2808 31.6068 31.6849C31.4435 31.934 31.2781 32.182 31.1148 32.4311C31.0831 32.4804 31.0484 32.5322 31.0167 32.5814C30.6155 33.19 30.2105 33.7979 29.8079 34.4016C29.5134 34.8382 29.2184 35.2732 28.9225 35.7049C23.5771 43.5492 17.988 50.4974 11.2938 53.3146C10.8223 53.2249 10.3451 53.1208 9.86606 53.003C9.72218 52.466 9.57786 51.9274 9.43354 51.3888C15.4089 49.3698 20.495 44.0386 25.2773 37.567C25.9951 36.5973 26.7042 35.6016 27.41 34.5873C27.9986 33.7389 28.5824 32.8795 29.1657 32.0114C29.2725 31.8535 29.3811 31.6951 29.487 31.5339C29.7568 31.1322 30.0245 30.7294 30.2933 30.3244C30.3543 30.2302 30.4137 30.1364 30.4742 30.0404C30.9056 29.3901 31.3349 28.7385 31.7649 28.0832C32.4814 26.9881 33.195 25.8885 33.9103 24.7955C34.2455 24.2824 34.5811 23.771 34.9172 23.2613C35 23.1346 35.085 23.0092 35.1679 22.8825C35.6038 22.2221 36.0397 21.5687 36.4765 20.9186C36.6544 20.6567 36.8305 20.3952 37.0088 20.135C42.0363 12.7477 47.2732 6.13475 53.4389 2.99517C54.1566 3.08444 54.8851 3.20797 55.6201 3.36873C55.8791 3.42328 56.1404 3.48609 56.4021 3.55056C56.4719 3.80454 56.5434 4.05808 56.6128 4.31042C56.5647 4.3251 56.5178 4.34473 56.4693 4.36482Z"
      fill="#F42525"/>
    <path
      d="M62.2176 25.1328C40.8194 19.7546 27.7551 45.4787 6.357 40.1006C5.51277 36.9499 4.66809 33.7975 3.82342 30.6452C25.2232 36.0229 38.2859 10.2992 59.684 15.6774C60.5282 18.8281 61.3734 21.9821 62.2176 25.1328Z"
      fill="white"/>
    <path
      d="M61.7653 23.4444C40.3672 18.0662 27.305 43.7916 5.90477 38.4122C5.36158 36.385 4.81883 34.3594 4.27563 32.3322C25.6754 37.7099 38.7381 11.9862 60.1362 17.3644C60.6794 19.3916 61.2226 21.4188 61.7653 23.4444Z"
      fill="#F42525"/>
    <path
      d="M31.523 9.27243C34.6011 20.76 37.6792 32.2476 40.7573 43.7352C38.8469 44.835 36.9501 45.979 35.0411 47.0837C31.963 35.5961 28.8849 24.1085 25.8068 12.6209C27.7163 11.5178 29.6126 10.3722 31.523 9.27243Z"
      fill="#CD002A"/>
    <path
      d="M37.2909 30.8574C37.822 30.5522 38.3534 30.2486 38.8855 29.9538C40.0365 34.2495 41.1875 38.5451 42.3385 42.8408C39.357 44.5038 36.4172 46.3292 33.4367 48.0026C32.2857 43.707 31.1351 39.413 29.9836 35.1156C30.5165 34.817 31.0463 34.5139 31.5752 34.2075C30.731 31.0568 29.8867 27.9061 29.0416 24.7521C28.5115 25.0606 27.9816 25.3637 27.4505 25.6619C26.3681 21.6223 25.2853 17.5811 24.2024 13.5398C27.1813 11.8669 30.1211 10.0415 33.1042 8.37798C34.1866 12.4176 35.2695 16.4588 36.3523 20.5C35.8191 20.797 35.2876 21.1005 34.7578 21.4036C35.602 24.5543 36.4467 27.7067 37.2909 30.8574Z"
      fill="white"/>
    <path
      d="M31.5393 9.26317C34.6174 20.7508 37.6955 32.2384 40.7736 43.726C38.8448 44.8378 36.9276 45.9925 34.9985 47.1097C31.9204 35.6221 28.8423 24.1345 25.7642 12.6469C27.6938 11.5314 29.6106 10.375 31.5393 9.26317Z"
      fill="#F42525"/>
  </g>
  <defs>
    <filter id="filter0_d" x="0.00195312" y="0" width="71" height="62" filterUnits="userSpaceOnUse"
            color-interpolation-filters="sRGB">
      <feFlood flood-opacity="0" result="BackgroundImageFix"/>
      <feColorMatrix in="SourceAlpha" type="matrix" values="0 0 0 0 0 0 0 0 0 0 0 0 0 0 0 0 0 0 127 0"/>
      <feOffset dx="4" dy="4"/>
      <feColorMatrix type="matrix" values="0 0 0 0 0 0 0 0 0 0 0 0 0 0 0 0 0 0 0.25 0"/>
      <feBlend mode="normal" in2="BackgroundImageFix" result="effect1_dropShadow"/>
      <feBlend mode="normal" in="SourceGraphic" in2="effect1_dropShadow" result="shape"/>
    </filter>
    <clipPath id="clip0">
      <rect width="67" height="58" fill="white" transform="translate(0.00195312)"/>
    </clipPath>
  </defs>
</svg>
