<svg width="62" height="58" viewBox="0 0 62 58" fill="none" xmlns="http://www.w3.org/2000/svg">
  <g clip-path="url(#clip0)" filter="url(#filter0_d)">
    <path
      d="M52.8415 18.8045C52.624 18.5504 52.3141 18.3398 51.9449 18.1894C50.3956 17.5576 48.5991 17.3002 46.9541 16.9492C45.9982 16.7586 45.029 16.5781 44.0764 16.3207C42.4809 15.9229 36.8836 14.8465 36.2441 14.8398C35.5486 14.8197 34.2926 12.2022 33.7784 10.9887C33.0763 9.37408 32.4203 7.73604 31.6819 6.14146C31.1677 5.01823 30.6963 3.90169 30.0798 2.83195C29.2491 1.37777 27.5152 -0.691512 25.7648 0.61892C25.2539 1.02342 24.8517 1.53823 24.4858 2.08313C23.4475 3.55068 22.4421 5.05834 21.4367 6.55264C19.439 9.52451 17.2239 12.6669 15.9943 16.0666C15.9086 16.0232 15.8196 15.9964 15.7174 16.0165C13.4198 16.4076 11.1255 16.6817 8.84109 17.1431C6.27319 17.6779 3.01964 18.2797 0.952793 20.0748C0.573707 20.4091 0.333069 20.9239 0.32318 21.4254C0.313291 22.7993 1.9582 24.2936 2.81197 25.1895C3.58992 25.9985 4.4338 26.7239 5.28427 27.4427C6.36549 28.3553 7.48627 29.2178 8.57079 30.1237C9.67509 31.0564 10.6475 32.1362 11.7419 33.0755C11.2409 35.2752 11.1057 37.6186 10.8453 39.8517C10.5354 42.5093 10.2948 45.1602 10.2618 47.8313C10.2355 49.4292 10.0443 51.7024 11.0695 53.0596C12.032 54.3266 14.4483 53.2301 15.4768 52.6016C16.858 51.7726 18.0348 50.6761 19.2347 49.593C21.9905 47.0925 24.2946 44.017 27.2087 41.7003C27.2746 41.6368 27.3076 41.5766 27.3372 41.5031C28.4514 41.2991 29.915 42.7834 30.5974 43.3651C31.8302 44.4482 33.0895 45.5179 34.2992 46.6178C36.521 48.667 38.7428 51.0639 41.5579 52.2707C42.9655 52.8657 44.7357 53.317 45.7608 51.8461C46.6608 50.5792 46.3113 48.3126 46.1267 46.8986C45.8169 44.6053 45.3158 42.3488 44.973 40.0623C44.6302 37.6988 44.0072 35.6797 43.6479 33.0488C44.3104 32.2465 45.0983 31.4809 45.6916 30.7823C46.1037 30.2808 46.5619 29.8095 47.0135 29.3314C48.3287 27.9675 49.6143 26.5835 50.8043 25.0993C51.7867 23.859 52.7921 22.5185 53.2569 20.9674C53.514 20.1283 53.3426 19.3594 52.8415 18.8045Z"
      fill="url(#paint0_linear)"/>
    <mask id="mask0" mask-type="alpha" maskUnits="userSpaceOnUse" x="0" y="16" width="26" height="13">
      <path
        d="M3.58975 21.0374C6.2961 21.492 13.9471 23.909 16.2084 24.6979C18.4598 25.4768 25.2175 28.4153 25.2175 28.4153C25.2175 28.4153 22.7056 25.41 19.5542 21.8196C17.8401 19.8741 16.6996 17.641 16.0139 16.0029C16.004 16.023 15.9941 16.0464 15.9941 16.0664C15.9084 16.023 15.8194 15.9962 15.7172 16.0163C13.4196 16.4074 11.1253 16.6815 8.84093 17.1429C6.27303 17.6777 3.01947 18.2795 0.952625 20.0746C0.596613 20.3889 0.369161 20.8669 0.336197 21.3349C1.14711 21.0407 2.26789 20.8134 3.58975 21.0374Z"
        fill="url(#paint1_radial)"/>
    </mask>
    <g mask="url(#mask0)">
      <path
        d="M3.58975 21.0374C6.2961 21.492 13.9471 23.909 16.2084 24.6979C18.4598 25.4768 25.2175 28.4153 25.2175 28.4153C25.2175 28.4153 22.7056 25.41 19.5542 21.8196C17.8401 19.8741 16.6996 17.641 16.0139 16.0029C16.004 16.023 15.9941 16.0464 15.9941 16.0664C15.9084 16.023 15.8194 15.9962 15.7172 16.0163C13.4196 16.4074 11.1253 16.6815 8.84093 17.1429C6.27303 17.6777 3.01947 18.2795 0.952625 20.0746C0.596613 20.3889 0.369161 20.8669 0.336197 21.3349C1.14711 21.0407 2.26789 20.8134 3.58975 21.0374Z"
        fill="url(#paint2_radial)"/>
    </g>
    <mask id="mask1" mask-type="alpha" maskUnits="userSpaceOnUse" x="24" y="0" width="12" height="29">
      <path
        d="M25.4105 28.0676C26.0401 26.9778 28.1136 23.4009 30.4343 20.1215C32.2835 17.504 34.446 15.6754 35.9854 14.7293C35.2767 14.2413 34.235 12.0516 33.7801 10.9886C33.0747 9.37393 32.4187 7.73589 31.6803 6.14131C31.1661 5.01808 30.6947 3.90154 30.0782 2.8318C29.508 1.81889 28.4927 0.518487 27.3422 0.254395C26.2116 2.17324 25.5226 7.70915 24.8963 14.9633C24.2766 22.0336 25.16 26.8976 25.4105 28.0676Z"
        fill="url(#paint3_radial)"/>
    </mask>
    <g mask="url(#mask1)">
      <path
        d="M25.4105 28.0676C26.0401 26.9778 28.1136 23.4009 30.4343 20.1215C32.2835 17.504 34.446 15.6754 35.9854 14.7293C35.2767 14.2413 34.235 12.0516 33.7801 10.9886C33.0747 9.37393 32.4187 7.73589 31.6803 6.14131C31.1661 5.01808 30.6947 3.90154 30.0782 2.8318C29.508 1.81889 28.4927 0.518487 27.3422 0.254395C26.2116 2.17324 25.5226 7.70915 24.8963 14.9633C24.2766 22.0336 25.16 26.8976 25.4105 28.0676Z"
        fill="url(#paint4_radial)"/>
      <path
        d="M52.8415 18.8045C52.624 18.5504 52.3141 18.3398 51.9449 18.1894C50.3956 17.5576 48.5991 17.3002 46.9541 16.9492C45.9982 16.7586 45.029 16.5781 44.0764 16.3207C42.4809 15.9229 36.8836 14.8465 36.2441 14.8398C35.5486 14.8197 34.2926 12.2022 33.7784 10.9887C33.0763 9.37408 32.4203 7.73604 31.6819 6.14146C31.1677 5.01823 30.6963 3.90169 30.0798 2.83195C29.2491 1.37777 27.5152 -0.691512 25.7648 0.61892C25.2539 1.02342 24.8517 1.53823 24.4858 2.08313C23.4475 3.55068 22.4421 5.05834 21.4367 6.55264C19.439 9.52451 17.2239 12.6669 15.9943 16.0666C15.9086 16.0232 15.8196 15.9964 15.7174 16.0165C13.4198 16.4076 11.1255 16.6817 8.84109 17.1431C6.27319 17.6779 3.01964 18.2797 0.952793 20.0748C0.573707 20.4091 0.333069 20.9239 0.32318 21.4254C0.313291 22.7993 1.9582 24.2936 2.81197 25.1895C3.58992 25.9985 4.4338 26.7239 5.28427 27.4427C6.36549 28.3553 7.48627 29.2178 8.57079 30.1237C9.67509 31.0564 10.6475 32.1362 11.7419 33.0755C11.2409 35.2752 11.1057 37.6186 10.8453 39.8517C10.5354 42.5093 10.2948 45.1602 10.2618 47.8313C10.2355 49.4292 10.0443 51.7024 11.0695 53.0596C12.032 54.3266 14.4483 53.2301 15.4768 52.6016C16.858 51.7726 18.0348 50.6761 19.2347 49.593C21.9905 47.0925 24.2946 44.017 27.2087 41.7003C27.2746 41.6368 27.3076 41.5766 27.3372 41.5031C28.4514 41.2991 29.915 42.7834 30.5974 43.3651C31.8302 44.4482 33.0895 45.5179 34.2992 46.6178C36.521 48.667 38.7428 51.0639 41.5579 52.2707C42.9655 52.8657 44.7357 53.317 45.7608 51.8461C46.6608 50.5792 46.3113 48.3126 46.1267 46.8986C45.8169 44.6053 45.3158 42.3488 44.973 40.0623C44.6302 37.6988 44.0072 35.6797 43.6479 33.0488C44.3104 32.2465 45.0983 31.4809 45.6916 30.7823C46.1037 30.2808 46.5619 29.8095 47.0135 29.3314C48.3287 27.9675 49.6143 26.5835 50.8043 25.0993C51.7867 23.859 52.7921 22.5185 53.2569 20.9674C53.514 20.1283 53.3426 19.3594 52.8415 18.8045ZM52.2943 21.1479C51.8889 22.4082 50.9988 23.498 50.1648 24.4975C49.7561 24.9889 49.321 25.4503 48.899 25.935C47.9497 27.0181 46.9541 28.0578 45.9586 29.0874C45.54 29.532 45.1543 29.9699 44.7785 30.4246C44.0929 31.2536 43.1929 31.959 42.6161 32.8415C42.3754 33.1825 44.1258 39.8216 44.706 43.0475C45.0323 44.8092 45.3818 46.5676 45.4971 48.3628C45.5532 49.2453 45.5334 50.1646 45.2928 51.0271C44.973 52.1436 44.0269 51.9163 43.1567 51.8027C43.0973 51.8027 43.0512 51.8027 43.0182 51.816C41.0107 51.0572 39.3856 49.9874 37.6978 48.5065C35.9277 46.9587 34.263 45.3073 32.4434 43.8064C31.2105 42.7868 27.9998 40.2094 27.0999 40.6473C26.8494 40.8612 26.7439 40.9415 26.5758 41.0785C24.0276 43.1277 21.9179 45.7921 19.5874 48.0853C18.5259 49.1317 17.4744 50.1947 16.2877 51.0973C15.6844 51.5553 15.0482 51.9899 14.3593 52.3041C14.0824 52.4345 13.6473 52.6885 13.3671 52.7153C12.8264 52.7554 11.9166 52.605 11.5969 52.1002C11.2508 51.572 11.2672 50.7931 11.231 50.1947C11.1288 48.4062 11.1815 46.6178 11.2969 44.8293C11.4123 42.8436 11.6529 40.8545 11.8771 38.8755C11.9826 38.0532 12.9979 32.8883 12.5528 32.5039C10.519 30.7789 8.61364 28.9637 6.51383 27.2989C4.35469 25.594 2.43618 23.7454 0.814344 21.4989C1.09784 19.4831 4.7997 18.848 6.43142 18.4635C9.56301 17.7448 12.7737 17.4005 15.9251 16.7854C16.0701 16.7653 16.1492 16.6684 16.1855 16.5714C16.2086 16.5514 16.2283 16.538 16.2514 16.5146C18.0216 13.7834 19.5182 10.8985 21.2883 8.18399C22.1784 6.82007 23.0882 5.48624 24.0145 4.16244C24.8188 3.00912 25.5737 1.29754 26.9977 0.852926C27.0109 0.84624 27.0241 0.842897 27.0438 0.836211C27.9339 1.06353 28.7811 2.52774 29.1832 3.14618C30.0601 4.5569 30.7556 6.08463 31.4314 7.60566C32.0247 8.91944 32.562 10.2566 33.1323 11.5804C33.6202 12.7237 34.0817 14.1211 34.8102 15.1139C34.8695 15.1875 34.9486 15.2443 35.0376 15.2577C35.5387 15.8126 36.1914 15.7725 37.0122 15.8794C39.2076 16.1402 40.658 16.4076 42.4051 16.8589C44.3236 17.3436 46.2751 17.6813 48.2068 18.1192C49.1561 18.3398 50.1121 18.5772 51.0285 18.8948C52.179 19.306 52.6998 19.8475 52.2943 21.1479Z"
        fill="#FFFB06"/>
      <mask id="mask2" mask-type="alpha" maskUnits="userSpaceOnUse" x="25" y="14" width="29" height="15">
        <path
          d="M30.4365 20.122C28.1158 23.4014 26.0424 26.9784 25.4128 28.0682C25.4325 28.1584 25.449 28.2386 25.4589 28.2888C26.7742 27.5767 33.3011 24.1703 40.0884 21.9472C47.4064 19.557 52.3839 19.2963 53.3696 20.0852C53.3432 19.6005 53.1652 19.1525 52.8454 18.7982C52.6279 18.5441 52.318 18.3335 51.9488 18.1831C50.3995 17.5513 48.603 17.2939 46.9581 16.9429C46.0021 16.7523 45.033 16.5718 44.0803 16.3144C42.4848 15.9166 36.8875 14.8401 36.248 14.8335C36.1689 14.8335 36.0733 14.7867 35.9876 14.7231C34.4482 15.6759 32.2858 17.5045 30.4365 20.122Z"
          fill="url(#paint5_radial)"/>
      </mask>
      <g mask="url(#mask2)">
        <path
          d="M30.4365 20.122C28.1158 23.4014 26.0424 26.9784 25.4128 28.0682C25.4325 28.1584 25.449 28.2386 25.4589 28.2888C26.7742 27.5767 33.3011 24.1703 40.0884 21.9472C47.4064 19.557 52.3839 19.2963 53.3696 20.0852C53.3432 19.6005 53.1652 19.1525 52.8454 18.7982C52.6279 18.5441 52.318 18.3335 51.9488 18.1831C50.3995 17.5513 48.603 17.2939 46.9581 16.9429C46.0021 16.7523 45.033 16.5718 44.0803 16.3144C42.4848 15.9166 36.8875 14.8401 36.248 14.8335C36.1689 14.8335 36.0733 14.7867 35.9876 14.7231C34.4482 15.6759 32.2858 17.5045 30.4365 20.122Z"
          fill="url(#paint6_radial)"/>
      </g>
    </g>
    <mask id="mask3" mask-type="alpha" maskUnits="userSpaceOnUse" x="25" y="28" width="1" height="1">
      <path
        d="M25.2192 28.4151C25.2192 28.4151 25.3082 28.3683 25.4598 28.2914C25.4499 28.2379 25.4334 28.1576 25.4137 28.0674C25.2851 28.288 25.2192 28.4151 25.2192 28.4151Z"
        fill="url(#paint7_radial)"/>
    </mask>
    <g mask="url(#mask3)">
      <path
        d="M25.2192 28.4151C25.2192 28.4151 25.3082 28.3683 25.4598 28.2914C25.4499 28.2379 25.4334 28.1576 25.4137 28.0674C25.2851 28.288 25.2192 28.4151 25.2192 28.4151Z"
        fill="url(#paint8_radial)"/>
    </g>
    <mask id="mask4" mask-type="alpha" maskUnits="userSpaceOnUse" x="25" y="28" width="1" height="1">
      <path
        d="M25.3906 28.4157C25.4236 28.409 25.4499 28.3689 25.4664 28.3555C25.4664 28.3555 25.4664 28.3221 25.4565 28.292C25.3082 28.3689 25.2192 28.4157 25.2192 28.4157C25.2192 28.4157 25.2851 28.4157 25.3906 28.4157Z"
        fill="url(#paint9_radial)"/>
    </mask>
    <g mask="url(#mask4)">
      <path
        d="M25.3906 28.4157C25.4236 28.409 25.4499 28.3689 25.4664 28.3555C25.4664 28.3555 25.4664 28.3221 25.4565 28.292C25.3082 28.3689 25.2192 28.4157 25.2192 28.4157C25.2192 28.4157 25.2851 28.4157 25.3906 28.4157Z"
        fill="url(#paint10_radial)"/>
      <path
        d="M25.2171 28.415C25.2171 28.415 25.2864 28.2913 25.4149 28.0707C25.1644 26.9006 24.281 22.0367 24.9007 14.9663C25.527 7.71216 26.216 2.17625 27.3466 0.257406C26.8423 0.13706 26.3017 0.213948 25.7644 0.618443C25.2534 1.02294 24.8512 1.53775 24.4853 2.08265C23.447 3.5502 22.4416 5.05787 21.4362 6.55216C19.4517 9.50398 17.2563 12.6263 16.0136 16.0027C16.6992 17.6407 17.8431 19.8738 19.5539 21.8194C22.7053 25.4097 25.2171 28.415 25.2171 28.415Z"
        fill="url(#paint11_radial)"/>
    </g>
    <mask id="mask5" mask-type="alpha" maskUnits="userSpaceOnUse" x="25" y="28" width="1" height="1">
      <path
        d="M25.2291 28.5621C25.2653 28.5421 25.2983 28.5086 25.3214 28.4919C25.2554 28.4384 25.2192 28.415 25.2192 28.415C25.2291 28.4719 25.2291 28.5187 25.2291 28.5621Z"
        fill="url(#paint12_radial)"/>
    </mask>
    <g mask="url(#mask5)">
      <path
        d="M25.2291 28.5621C25.2653 28.5421 25.2983 28.5086 25.3214 28.4919C25.2554 28.4384 25.2192 28.415 25.2192 28.415C25.2291 28.4719 25.2291 28.5187 25.2291 28.5621Z"
        fill="url(#paint13_radial)"/>
    </g>
    <mask id="mask6" mask-type="alpha" maskUnits="userSpaceOnUse" x="25" y="28" width="1" height="1">
      <path
        d="M25.3227 28.4919C25.3458 28.4719 25.3623 28.4384 25.3886 28.415C25.2832 28.415 25.2139 28.415 25.2139 28.415C25.2139 28.415 25.2535 28.4384 25.3227 28.4919Z"
        fill="url(#paint14_radial)"/>
    </mask>
    <g mask="url(#mask6)">
      <path
        d="M25.3227 28.4919C25.3458 28.4719 25.3623 28.4384 25.3886 28.415C25.2832 28.415 25.2139 28.415 25.2139 28.415C25.2139 28.415 25.2535 28.4384 25.3227 28.4919Z"
        fill="url(#paint15_radial)"/>
      <path
        d="M25.3889 28.415C25.3625 28.4384 25.346 28.4719 25.323 28.4919C26.2031 29.1505 32.7794 34.1014 35.8385 37.7519C38.9404 41.4592 44.7421 50.1709 45.1014 52.4875C45.3519 52.3371 45.5695 52.1332 45.7607 51.849C46.6606 50.5821 46.3112 48.3156 46.1266 46.9015C45.8167 44.6082 45.3157 42.3518 44.9728 40.0652C44.6531 37.8522 44.0927 35.9266 43.7169 33.5164C43.4367 33.3592 43.1565 33.2088 42.8566 33.0517C35.2122 29.0134 26.7042 28.4786 25.3889 28.415Z"
        fill="url(#paint16_radial)"/>
      <path opacity="0.4"
            d="M40.0833 21.9501C33.2993 24.1698 26.7724 27.5796 25.4572 28.2883C25.4671 28.3217 25.4671 28.3518 25.4671 28.3518C25.4473 28.3685 25.4209 28.4086 25.3879 28.4153C26.6999 28.4822 35.2079 29.017 42.8589 33.052C43.1589 33.2091 43.4391 33.3595 43.7193 33.5166C43.6896 33.3595 43.6698 33.2091 43.65 33.052C44.3126 32.2497 45.1004 31.4841 45.6938 30.7854C46.1059 30.284 46.5641 29.8126 47.0157 29.3346C48.3309 27.9707 49.6165 26.5867 50.8065 25.1024C51.7889 23.8622 52.7943 22.5217 53.2591 20.9706C53.3514 20.663 53.3843 20.3755 53.3645 20.088C52.3822 19.2991 47.4013 19.5598 40.0833 21.9501Z"
            fill="url(#paint17_radial)"/>
      <path
        d="M25.2176 28.4149C25.2176 28.4149 18.46 25.4765 16.2086 24.7009C13.9472 23.9087 6.29627 21.4917 3.58992 21.0371C2.26806 20.8164 1.14728 21.0438 0.336365 21.3379C0.336365 21.3714 0.32318 21.4048 0.32318 21.4282C0.313291 22.7988 1.9582 24.2931 2.81197 25.189C3.58992 25.998 4.4338 26.7234 5.28427 27.4421C6.36549 28.3548 7.48627 29.2172 8.57079 30.1232C9.67509 31.0559 10.6475 32.1356 11.7419 33.075C11.6859 33.3023 11.643 33.5263 11.5969 33.7469C13.7033 32.5602 19.1556 29.7321 25.2176 28.4149Z"
        fill="url(#paint18_radial)"/>
    </g>
    <mask id="mask7" mask-type="alpha" maskUnits="userSpaceOnUse" x="10" y="28" width="16" height="26">
      <path
        d="M12.3392 50.3513C13.2292 47.3293 19.9868 33.2957 25.2281 28.5621C25.2281 28.5153 25.2281 28.4718 25.2149 28.4116C19.1561 29.7321 13.7039 32.5602 11.5975 33.747C11.2085 35.7527 11.0832 37.8487 10.8459 39.8512C10.536 42.5088 10.2954 45.1597 10.2624 47.8308C10.2361 49.4287 10.0449 51.7019 11.0701 53.0591C11.3371 53.4135 11.7129 53.5672 12.1315 53.6207C11.9469 53.009 11.8678 51.9693 12.3392 50.3513Z"
        fill="url(#paint19_radial)"/>
    </mask>
    <g mask="url(#mask7)">
      <path
        d="M12.3392 50.3513C13.2292 47.3293 19.9868 33.2957 25.2281 28.5621C25.2281 28.5153 25.2281 28.4718 25.2149 28.4116C19.1561 29.7321 13.7039 32.5602 11.5975 33.747C11.2085 35.7527 11.0832 37.8487 10.8459 39.8512C10.536 42.5088 10.2954 45.1597 10.2624 47.8308C10.2361 49.4287 10.0449 51.7019 11.0701 53.0591C11.3371 53.4135 11.7129 53.5672 12.1315 53.6207C11.9469 53.009 11.8678 51.9693 12.3392 50.3513Z"
        fill="url(#paint20_radial)"/>
    </g>
    <path
      d="M27.828 1.65186C27.828 1.65186 26.4666 10.1329 26.282 14.7027C26.0908 19.2725 26.1469 22.9297 26.7963 27.4426C26.7963 27.4426 41.7323 19.4697 52.0929 19.7305C52.0929 19.7305 41.9169 20.1216 27.1819 28.1547C27.1819 28.1547 36.1251 33.3797 43.8585 47.9315C43.8585 47.9315 36.3921 35.2049 28.4675 30.3109L26.3447 28.8768C26.3447 28.8768 23.4537 32.2063 20.3617 37.0302C17.2664 41.8607 13.4096 49.369 13.2151 51.2577C13.2151 51.2577 13.4854 47.0055 20.3617 35.8602C20.9946 34.8071 25.3854 28.6829 25.3854 28.6829C25.3854 28.6829 16.0467 23.9727 4.58838 21.0376C4.58838 21.0376 8.89349 21.763 16.0467 23.976C23.19 26.1957 25.5799 27.8271 25.5799 27.8271C25.5799 27.8271 24.8052 23.5815 25.5799 14.9634C26.3447 6.34534 27.6072 2.46753 27.828 1.65186Z"
      fill="white"/>
  </g>
  <defs>
    <filter id="filter0_d" x="0.00195312" y="0" width="65" height="62" filterUnits="userSpaceOnUse"
            color-interpolation-filters="sRGB">
      <feFlood flood-opacity="0" result="BackgroundImageFix"/>
      <feColorMatrix in="SourceAlpha" type="matrix" values="0 0 0 0 0 0 0 0 0 0 0 0 0 0 0 0 0 0 127 0"/>
      <feOffset dx="4" dy="4"/>
      <feColorMatrix type="matrix" values="0 0 0 0 0 0 0 0 0 0 0 0 0 0 0 0 0 0 0.25 0"/>
      <feBlend mode="normal" in2="BackgroundImageFix" result="effect1_dropShadow"/>
      <feBlend mode="normal" in="SourceGraphic" in2="effect1_dropShadow" result="shape"/>
    </filter>
    <linearGradient id="paint0_linear" x1="25.2615" y1="-8.68715" x2="28.5717" y2="51.1083"
                    gradientUnits="userSpaceOnUse">
      <stop offset="0.1097" stop-color="#FFFB74"/>
      <stop offset="0.4851" stop-color="#FFFA00"/>
      <stop offset="0.9305" stop-color="#FFC921"/>
    </linearGradient>
    <radialGradient id="paint1_radial" cx="0" cy="0" r="1" gradientUnits="userSpaceOnUse"
                    gradientTransform="translate(17.3615 18.5787) scale(18.0488 18.3036)">
      <stop stop-color="#808080"/>
      <stop offset="0.8549" stop-color="white"/>
    </radialGradient>
    <radialGradient id="paint2_radial" cx="0" cy="0" r="1" gradientUnits="userSpaceOnUse"
                    gradientTransform="translate(17.3615 18.5787) scale(18.0488 18.3036)">
      <stop stop-color="#FFFB62"/>
      <stop offset="0.8549" stop-color="white"/>
    </radialGradient>
    <radialGradient id="paint3_radial" cx="0" cy="0" r="1" gradientUnits="userSpaceOnUse"
                    gradientTransform="translate(38.6446 19.0133) scale(19.8094 20.0891)">
      <stop offset="0.377" stop-color="#808080"/>
      <stop offset="0.8549" stop-color="white"/>
    </radialGradient>
    <radialGradient id="paint4_radial" cx="0" cy="0" r="1" gradientUnits="userSpaceOnUse"
                    gradientTransform="translate(38.6446 19.0133) scale(19.8094 20.0891)">
      <stop offset="0.377" stop-color="#FFFB62"/>
      <stop offset="0.8549" stop-color="white"/>
    </radialGradient>
    <radialGradient id="paint5_radial" cx="0" cy="0" r="1" gradientUnits="userSpaceOnUse"
                    gradientTransform="translate(46.5236 32.3839) scale(20.6312 20.9225)">
      <stop offset="0.4555"/>
      <stop offset="0.4581" stop-color="#040404"/>
      <stop offset="0.498" stop-color="#383838"/>
      <stop offset="0.5404" stop-color="#676767"/>
      <stop offset="0.5845" stop-color="#909090"/>
      <stop offset="0.6308" stop-color="#B2B2B2"/>
      <stop offset="0.6797" stop-color="#CECECE"/>
      <stop offset="0.7321" stop-color="#E4E4E4"/>
      <stop offset="0.7898" stop-color="#F3F3F3"/>
      <stop offset="0.8568" stop-color="#FCFCFC"/>
      <stop offset="0.955" stop-color="white"/>
    </radialGradient>
    <radialGradient id="paint6_radial" cx="0" cy="0" r="1" gradientUnits="userSpaceOnUse"
                    gradientTransform="translate(46.5236 32.3839) scale(20.6312 20.9225)">
      <stop offset="0.4555" stop-color="#FFFA19"/>
      <stop offset="0.4643" stop-color="#FFF418"/>
      <stop offset="0.5248" stop-color="#FCD311"/>
      <stop offset="0.5896" stop-color="#FAB70A"/>
      <stop offset="0.6591" stop-color="#F9A106"/>
      <stop offset="0.7357" stop-color="#F89203"/>
      <stop offset="0.8246" stop-color="#F78901"/>
      <stop offset="0.955" stop-color="#F78600"/>
    </radialGradient>
    <radialGradient id="paint7_radial" cx="0" cy="0" r="1" gradientUnits="userSpaceOnUse"
                    gradientTransform="translate(26.8446 26.9144) scale(26.4383 26.8115)">
      <stop offset="0.4146"/>
      <stop offset="0.8549" stop-color="white"/>
    </radialGradient>
    <radialGradient id="paint8_radial" cx="0" cy="0" r="1" gradientUnits="userSpaceOnUse"
                    gradientTransform="translate(26.8446 26.9144) scale(26.4383 26.8115)">
      <stop offset="0.4146" stop-color="#FFFB62"/>
      <stop offset="0.8549" stop-color="#F39F46"/>
    </radialGradient>
    <radialGradient id="paint9_radial" cx="0" cy="0" r="1" gradientUnits="userSpaceOnUse"
                    gradientTransform="translate(26.81 27.0631) scale(24.732 25.0813)">
      <stop offset="0.4146"/>
      <stop offset="0.8549" stop-color="white"/>
    </radialGradient>
    <radialGradient id="paint10_radial" cx="0" cy="0" r="1" gradientUnits="userSpaceOnUse"
                    gradientTransform="translate(26.81 27.0631) scale(24.732 25.0813)">
      <stop offset="0.4146" stop-color="#FFFB62"/>
      <stop offset="0.8549" stop-color="#F39F46"/>
    </radialGradient>
    <radialGradient id="paint11_radial" cx="0" cy="0" r="1" gradientUnits="userSpaceOnUse"
                    gradientTransform="translate(14.4435 11.1808) scale(16.0861 16.3132)">
      <stop offset="0.3863" stop-color="#F6C100"/>
      <stop offset="1" stop-color="#EA6500"/>
    </radialGradient>
    <radialGradient id="paint12_radial" cx="0" cy="0" r="1" gradientUnits="userSpaceOnUse"
                    gradientTransform="translate(26.9254 26.9492) scale(26.7433 27.1209)">
      <stop offset="0.4146"/>
      <stop offset="0.8549" stop-color="white"/>
    </radialGradient>
    <radialGradient id="paint13_radial" cx="0" cy="0" r="1" gradientUnits="userSpaceOnUse"
                    gradientTransform="translate(26.9254 26.9492) scale(26.7433 27.1209)">
      <stop offset="0.4146" stop-color="#FFFB62"/>
      <stop offset="0.8549" stop-color="#F39F46"/>
    </radialGradient>
    <radialGradient id="paint14_radial" cx="0" cy="0" r="1" gradientUnits="userSpaceOnUse"
                    gradientTransform="translate(26.8196 26.8666) scale(26.7232 27.0997)">
      <stop offset="0.4146"/>
      <stop offset="0.8549" stop-color="white"/>
    </radialGradient>
    <radialGradient id="paint15_radial" cx="0" cy="0" r="1" gradientUnits="userSpaceOnUse"
                    gradientTransform="translate(26.8196 26.8666) scale(26.7232 27.0997)">
      <stop offset="0.4146" stop-color="#FFFB62"/>
      <stop offset="0.8549" stop-color="#F39F46"/>
    </radialGradient>
    <radialGradient id="paint16_radial" cx="0" cy="0" r="1" gradientUnits="userSpaceOnUse"
                    gradientTransform="translate(27.5378 38.2012) scale(19.6248 19.9019)">
      <stop stop-color="#F6C100"/>
      <stop offset="0.7816" stop-color="#BC6300"/>
    </radialGradient>
    <radialGradient id="paint17_radial" cx="0" cy="0" r="1" gradientUnits="userSpaceOnUse"
                    gradientTransform="translate(36.5008 11.3549) scale(21.1596 21.4583)">
      <stop offset="0.3795" stop-color="#FFDC11"/>
      <stop offset="0.7797" stop-color="#CE7000"/>
    </radialGradient>
    <radialGradient id="paint18_radial" cx="0" cy="0" r="1" gradientUnits="userSpaceOnUse"
                    gradientTransform="translate(27.6629 19.6651) scale(27.3605 27.7467)">
      <stop offset="0.3863" stop-color="#F6C100"/>
      <stop offset="0.7816" stop-color="#CD6400"/>
    </radialGradient>
    <radialGradient id="paint19_radial" cx="0" cy="0" r="1" gradientUnits="userSpaceOnUse"
                    gradientTransform="translate(26.848 26.9207) scale(26.4375 26.8107)">
      <stop offset="0.4146"/>
      <stop offset="0.8549" stop-color="white"/>
    </radialGradient>
    <radialGradient id="paint20_radial" cx="0" cy="0" r="1" gradientUnits="userSpaceOnUse"
                    gradientTransform="translate(26.848 26.9207) scale(26.4375 26.8107)">
      <stop offset="0.4146" stop-color="#FFFB62"/>
      <stop offset="0.8549" stop-color="#F39F46"/>
    </radialGradient>
    <clipPath id="clip0">
      <rect width="61" height="58" fill="white" transform="translate(0.00195312)"/>
    </clipPath>
  </defs>
</svg>
