<svg width="328" height="252" viewBox="0 0 328 252" fill="none" xmlns="http://www.w3.org/2000/svg">
<path d="M88.8067 66.5299C91.7948 63.1815 96.4406 55.6619 97.7724 45.8058C98.7174 38.8135 98.2254 32.9447 98.1192 31.8202C99.227 33.9164 109.061 51.8943 126.058 53.0935C142.775 54.2731 159.509 38.7321 164.24 15.0254C164.779 19.118 167.93 40.607 181.934 49.7345C198.81 60.7341 241.535 19.5033 241.535 19.5033C241.535 19.5033 235.604 40.3311 241.535 53.0929C249.85 70.9838 275.911 78.7872 302.068 63.1698C299.265 66.4239 295.514 71.3356 292.003 78.0379C287.608 86.4266 279.697 101.524 282.511 116.914C285.269 131.998 313.243 148.264 313.243 148.264C313.243 148.264 282.785 148.734 273.198 161.7C263.258 175.144 263.707 191.577 263.886 195.29C262.058 193.43 250.657 182.2 235.948 185.213C221.083 188.258 208.963 204.595 207.078 225.521C204.013 209.386 194.64 196.502 182.865 193.05C166.322 188.201 140.958 227.76 140.958 227.76C140.958 227.76 141.477 212.68 137.148 201.581C134.76 195.458 131.014 189.072 127.92 186.333C117.074 176.73 89.4197 189.949 62.731 222.162C73.5394 196.61 81.8628 168.139 72.0435 153.862C60.4064 136.941 26.4111 138.187 26.4111 138.187C28.7422 137.323 44.9768 130.956 51.5553 111.315C57.4972 93.575 40.4274 58.0586 40.4274 58.0586C40.4274 58.0586 79.733 76.6965 88.8067 66.5299Z" fill="#FAFF00"/>
<path d="M104.468 78.9792C106.885 76.4451 110.642 70.7541 111.72 63.2949C112.484 58.0031 112.086 53.5615 112 52.7105C112.896 54.2969 120.85 67.9028 134.598 68.8103C148.119 69.7031 161.654 57.9415 165.481 40C165.917 43.0974 168.466 59.3605 179.792 66.2682C193.442 74.5928 228 43.3889 228 43.3889C228 43.3889 223.203 59.1516 228 68.8099C234.726 82.3499 255.804 88.2556 276.961 76.4362C274.695 78.899 271.661 82.6162 268.82 87.6885C265.266 94.0373 258.867 105.463 261.143 117.11C263.374 128.526 286 140.837 286 140.837C286 140.837 261.365 141.192 253.611 151.005C245.57 161.18 245.934 173.616 246.078 176.426C244.6 175.019 235.378 166.519 223.481 168.8C211.458 171.104 201.655 183.469 200.13 199.305C197.651 187.095 190.07 177.343 180.546 174.731C167.165 171.061 146.65 201 146.65 201C146.65 201 147.069 189.587 143.568 181.187C141.637 176.553 138.606 171.72 136.104 169.647C127.331 162.38 104.964 172.384 83.3768 196.763C92.1191 177.425 98.8514 155.878 90.9091 145.073C81.4967 132.267 54 133.21 54 133.21C55.8854 132.556 69.0166 127.738 74.3376 112.873C79.1436 99.4472 65.3369 72.568 65.3369 72.568C65.3369 72.568 97.1287 86.6734 104.468 78.9792Z" fill="white"/>
<path d="M86.4784 63.5243C88.0169 61.6901 89.3955 59.3151 90.6025 56.9323C91.2016 55.7265 91.7836 54.5016 92.2705 53.2249C92.788 51.9644 93.2317 50.6643 93.6041 49.338C93.9987 48.0173 94.2676 46.6575 94.5157 45.2928C94.7522 43.8812 94.9539 42.4333 95.0944 40.9771C95.3694 38.0775 95.4913 35.0503 95.4032 32.1942L95.4028 32.1892L93.8744 19.0048L100.427 30.0556C102.36 33.3176 104.733 36.4742 107.308 39.1312C109.888 41.8095 112.683 44.1426 115.696 45.8202C118.704 47.5055 121.894 48.5469 125.134 48.9238C128.377 49.2951 131.677 48.9606 134.867 47.985C141.242 45.9451 147.107 41.4978 151.717 35.5727C154.023 32.6029 156.033 29.2829 157.717 25.7088C159.359 22.1011 160.644 18.2638 161.688 14.2877L165.437 0L166.831 14.5297V14.5319C167.793 24.1221 170.633 33.8706 175.94 41.0858C176.561 42.0358 177.322 42.8074 178.029 43.6509C178.745 44.4816 179.574 45.1428 180.338 45.9044C181.155 46.57 182.013 47.1821 182.844 47.8099L184.067 48.4722C184.486 48.6701 184.945 48.7794 185.382 48.9377C189.018 49.9206 193.141 49.1568 197.039 47.7804C204.91 44.965 212.349 40.0389 219.464 34.737C226.536 29.3236 233.412 23.3226 239.855 16.9849L246.602 10.3478L244.073 20.5463C243.567 22.5884 243.11 24.8993 242.776 27.1181C242.445 29.361 242.17 31.615 242.038 33.8584C241.736 38.3379 241.948 42.8035 242.847 46.788C242.954 47.2875 243.121 47.7463 243.25 48.228C243.394 48.6986 243.499 49.2009 243.704 49.6184L244.24 50.9308C244.402 51.3718 244.678 51.7988 244.888 52.2348C245.82 53.9519 246.947 55.5364 248.218 56.9675C250.742 59.8615 253.861 62.1038 257.203 63.7623C263.935 67.0466 271.545 68.0166 278.972 67.0917C286.427 66.2176 293.737 63.4473 300.518 59.4188L320.441 47.5797L304.485 66.1797C301.879 69.2175 299.492 72.5168 297.359 76.0386C296.278 77.8231 295.33 79.5648 294.319 81.5294C293.323 83.4551 292.361 85.3584 291.465 87.2823C289.687 91.1291 288.133 95.0595 287.056 99.083C285.998 103.102 285.379 107.202 285.49 111.196C285.583 112.182 285.56 113.191 285.728 114.157L285.935 115.615L285.984 115.98L286.054 116.263L286.185 116.824C286.58 118.349 287.407 119.996 288.396 121.57C290.403 124.746 293.125 127.66 295.971 130.356C298.84 133.054 301.927 135.532 305.095 137.869C308.252 140.182 311.578 142.414 314.818 144.341L328 152.181L313.287 152.62C310.46 152.704 307.45 152.96 304.543 153.313C301.615 153.67 298.706 154.156 295.836 154.777C292.975 155.418 290.142 156.183 287.431 157.193C284.723 158.199 282.107 159.43 279.838 161.01C278.722 161.81 277.654 162.662 276.8 163.628C276.01 164.482 275.126 165.863 274.286 167.122C272.656 169.728 271.337 172.606 270.295 175.635C268.217 181.682 267.315 188.48 267.612 195.031L268.076 205.269L261.469 198.719C257.026 194.313 251.505 191.024 245.913 189.792C240.295 188.529 234.507 189.555 229.365 192.511C226.793 193.99 224.426 196.003 222.287 198.321C220.162 200.658 218.218 203.292 216.662 206.259C215.089 209.207 213.788 212.376 212.798 215.695C211.859 219.037 211.223 222.498 210.863 226.013L208.233 251.683L203.36 226.54C201.799 218.485 198.446 210.856 193.532 205.298C191.075 202.551 188.292 200.233 185.239 198.793C184.474 198.443 183.715 198.07 182.923 197.835C182.548 197.719 182.101 197.516 181.787 197.466L180.832 197.273C179.517 197.112 178.047 197.344 176.545 197.813C175.041 198.268 173.499 199.026 171.982 199.948C170.458 200.84 168.961 201.944 167.488 203.112C164.544 205.48 161.714 208.223 159.002 211.171C156.282 214.107 153.676 217.253 151.157 220.502C148.659 223.742 146.178 227.172 143.966 230.55L136.82 241.46L137.159 227.569C137.188 226.394 137.173 224.97 137.132 223.655C137.095 222.313 137.014 220.97 136.917 219.633C136.716 216.96 136.397 214.311 135.928 211.747C135.46 209.187 134.841 206.705 134.029 204.428C133.224 202.133 132.127 199.759 130.963 197.567C129.789 195.375 128.478 193.247 127.097 191.546C126.754 191.124 126.411 190.744 126.078 190.398C125.759 190.072 125.427 189.826 125.103 189.572C124.417 189.1 123.664 188.679 122.794 188.423C121.085 187.859 119.092 187.714 117.036 187.92C114.978 188.12 112.861 188.599 110.754 189.299C106.533 190.698 102.363 192.827 98.3227 195.313C94.2871 197.829 90.3559 200.684 86.5744 203.841C78.9998 210.14 71.9251 217.415 65.3568 225.305L48.8291 245.16L59.4265 220.14C63.4853 210.558 67.181 200.751 69.8065 190.699C71.1127 185.682 72.1259 180.592 72.5687 175.568C73.0083 170.565 72.8326 165.575 71.5403 161.376C70.8674 159.283 69.9646 157.474 68.7043 155.847C67.4486 154.2 65.8989 152.749 64.186 151.489C60.7495 148.96 56.7106 147.19 52.5466 145.884C48.3742 144.568 44.0358 143.709 39.6603 143.148C35.3094 142.595 30.7958 142.306 26.5256 142.379H26.5172L0 143.004L25.3835 134.177C28.2904 133.167 31.2507 131.614 33.9763 129.752C36.708 127.865 39.2606 125.616 41.5221 123.016C43.791 120.424 45.765 117.468 47.3021 114.195C47.7362 113.408 48.0515 112.546 48.3965 111.7C48.7391 110.855 49.1157 109.987 49.3169 109.226C49.7829 107.637 50.0899 105.891 50.2007 104.058C50.4326 100.389 50.1131 96.5068 49.4959 92.6628C48.8954 88.8088 47.9829 84.9715 46.9423 81.176C44.819 73.609 42.111 66.1306 39.0093 59.0564L39.0042 59.0453L36.9746 54.5657L41.0301 56.2187C44.9326 57.8099 48.9395 59.2549 52.9352 60.5572C56.9304 61.8847 60.9502 63.0794 64.9789 64.0232C68.9992 64.9654 73.0566 65.6963 76.9869 65.8463C78.9418 65.9132 80.8783 65.8363 82.6148 65.4644C84.3477 65.1199 85.8352 64.3343 86.4784 63.5243ZM91.1339 69.5303C89.8954 70.7557 88.5349 71.6755 87.2528 72.1344C86.5971 72.4326 85.9711 72.5915 85.3446 72.751C84.7075 72.9433 84.1116 72.9946 83.501 73.0949C81.0851 73.4021 78.8116 73.2795 76.5918 73.0286C74.3716 72.7761 72.2196 72.3401 70.0972 71.8261C67.9725 71.3193 65.8854 70.7133 63.8196 70.0487C59.6867 68.7263 55.6409 67.1765 51.6461 65.4856C47.6545 63.759 43.7367 61.9248 39.824 59.8955L41.8495 57.0695L41.856 57.0829C45.3648 64.2797 48.3812 71.6783 50.9037 79.4639C52.1376 83.3631 53.2519 87.3425 54.0624 91.4826C54.8818 95.6125 55.4341 99.9064 55.3251 104.406C55.2708 106.651 54.9857 108.964 54.4074 111.256C54.1195 112.458 53.7411 113.424 53.3799 114.437C53.0149 115.446 52.6746 116.472 52.209 117.424C50.5471 121.36 48.3538 124.972 45.816 128.148C43.2842 131.337 40.4162 134.109 37.3423 136.461C34.2439 138.796 31.0077 140.734 27.4386 142.195L26.3048 133.994L26.3183 133.993C31.1324 133.89 35.7078 134.175 40.3921 134.739C45.0486 135.316 49.7046 136.206 54.3277 137.638C58.9401 139.073 63.559 141.008 67.9011 144.157C70.0624 145.735 72.151 147.639 73.9765 150.008C75.8272 152.364 77.3189 155.31 78.2704 158.315C80.1503 164.412 80.2532 170.643 79.7816 176.456C79.2831 182.302 78.1693 187.889 76.7852 193.297C73.9951 204.113 70.1798 214.289 66.0352 224.181L60.1054 219.016C66.9227 210.763 74.2877 203.116 82.2898 196.403C90.315 189.759 98.9232 183.825 108.76 180.492C111.222 179.678 113.782 179.077 116.451 178.818C119.112 178.564 121.929 178.683 124.8 179.617C126.231 180.054 127.67 180.793 129.027 181.753C129.704 182.262 130.365 182.796 130.952 183.393C131.519 183.974 132.045 184.565 132.53 185.162C134.458 187.552 135.963 190.047 137.359 192.637C138.741 195.25 139.965 197.872 141.012 200.823C142.068 203.786 142.803 206.793 143.355 209.796C143.904 212.801 144.263 215.804 144.49 218.808C144.599 220.31 144.689 221.81 144.731 223.317C144.775 224.849 144.798 226.276 144.757 227.95L137.947 224.97C140.428 221.183 142.934 217.732 145.589 214.28C148.241 210.859 150.991 207.534 153.914 204.376C156.828 201.211 159.911 198.206 163.272 195.499C164.962 194.158 166.705 192.871 168.59 191.76C170.456 190.631 172.44 189.635 174.613 188.963C176.771 188.291 179.113 187.873 181.587 188.165C182.202 188.255 182.822 188.399 183.436 188.53C184.058 188.664 184.504 188.872 185.046 189.044C186.097 189.368 187.099 189.844 188.105 190.31C192.119 192.219 195.685 195.188 198.765 198.641C204.919 205.624 208.916 214.838 210.793 224.5L203.291 225.027C203.711 220.831 204.473 216.684 205.607 212.667C206.794 208.671 208.362 204.837 210.279 201.255C214.13 194.111 219.567 188.084 226.072 184.289C229.334 182.427 232.847 181.149 236.449 180.558C240.051 179.96 243.736 180.092 247.277 180.885C250.823 181.673 254.219 183.095 257.396 184.95C260.582 186.815 263.532 189.074 266.299 191.86L260.157 195.548C259.826 187.568 260.899 179.642 263.445 172.23C264.723 168.542 266.361 165.003 268.379 161.794C269.435 160.223 270.384 158.685 271.832 157.081C273.2 155.564 274.676 154.401 276.159 153.349C279.143 151.295 282.215 149.9 285.287 148.766C288.363 147.634 291.451 146.817 294.541 146.136C297.632 145.479 300.724 144.976 303.821 144.61C306.938 144.248 309.971 143.992 313.197 143.907L311.666 152.186C308.053 150.02 304.7 147.744 301.329 145.262C297.982 142.775 294.699 140.129 291.546 137.148C288.41 134.139 285.339 130.913 282.705 126.751C281.409 124.654 280.178 122.335 279.41 119.464L279.153 118.364L279.032 117.816L278.962 117.331L278.69 115.388C278.485 114.094 278.49 112.785 278.391 111.484C278.259 106.267 279.072 101.194 280.332 96.4633C281.615 91.7295 283.388 87.3225 285.334 83.1423C286.312 81.0561 287.343 79.0324 288.373 77.056C289.378 75.1115 290.529 73.0041 291.709 71.0768C294.09 67.1698 296.752 63.5142 299.649 60.1592L303.617 66.9195C296.149 71.3243 288.039 74.3806 279.65 75.3378C271.295 76.3151 262.601 75.316 254.598 71.2937C250.627 69.2487 246.809 66.4891 243.62 62.7092C242.032 60.8248 240.599 58.7097 239.409 56.386C239.129 55.7844 238.81 55.242 238.567 54.5897L237.827 52.663C237.556 52.0246 237.415 51.3606 237.231 50.7045C237.065 50.0461 236.863 49.3893 236.734 48.7298C235.712 43.4262 235.725 38.1907 236.218 33.1776C236.453 30.6611 236.839 28.1958 237.286 25.7539C237.75 23.2914 238.281 20.9655 238.996 18.4601L243.215 22.0214C236.271 28.2911 229.143 33.952 221.688 39.1641C217.972 41.7732 214.17 44.2268 210.248 46.4323C206.333 48.6489 202.31 50.6738 198.047 52.0653C195.933 52.8035 193.726 53.2957 191.485 53.6219C189.23 53.8845 186.883 53.8354 184.543 53.1982C183.963 52.993 183.372 52.847 182.801 52.5922L181.107 51.7035C180.127 50.9994 179.147 50.3159 178.2 49.5627C177.313 48.7192 176.358 47.9604 175.531 47.0344C174.72 46.0911 173.825 45.2376 173.101 44.1989L171.962 42.6942C171.593 42.183 171.268 41.6339 170.919 41.1037C170.205 40.0545 169.6 38.9244 168.983 37.8005C168.34 36.6933 167.838 35.498 167.26 34.3462C166.767 33.1498 166.219 31.974 165.784 30.7464C163.898 25.8927 162.582 20.796 161.648 15.522L161.648 15.5192L166.791 15.7618C166.01 20.3283 164.779 24.8078 163.105 29.0744C161.333 33.2791 159.162 37.2603 156.583 40.8695C153.984 44.4576 150.916 47.5746 147.548 50.1447C144.179 52.7076 140.479 54.748 136.543 55.8859C132.62 57.0489 128.511 57.4341 124.462 56.9268C120.406 56.4551 116.447 54.9861 112.869 52.8012C109.284 50.618 106.039 47.796 103.205 44.5396C100.372 41.252 97.8803 37.7118 95.8122 33.5835L100.836 31.4499L100.836 31.4561C101.298 34.8624 101.431 38.1556 101.331 41.533C101.277 43.2149 101.179 44.8975 100.986 46.5906C100.761 48.32 100.494 50.0488 100.085 51.7258C99.3173 55.1004 98.1729 58.335 96.6923 61.3277C95.9569 62.8285 95.1297 64.2641 94.1976 65.6166C93.2721 66.9769 92.283 68.2781 91.1339 69.5303Z" fill="#353434"/>
</svg>
