<svg width="39" height="45" viewBox="0 0 39 45" fill="none" xmlns="http://www.w3.org/2000/svg">
<path d="M29.5409 24.2783H19.5941H19.3133H9.36608L1 34.0353H37.907L29.5409 24.2783Z" fill="#767678" stroke="#1D1E1C" stroke-miterlimit="10" stroke-linecap="round" stroke-linejoin="round"/>
<path d="M35.6238 40.3035H3.28323C2.68702 40.3035 2.17358 39.8827 2.0563 39.2982L1 34.0352H37.907L36.8507 39.2982C36.7334 39.8831 36.22 40.3035 35.6238 40.3035Z" fill="#666568" stroke="#1D1E1C" stroke-miterlimit="10" stroke-linecap="round" stroke-linejoin="round"/>
<path d="M19.4537 40.3037H3.67041L4.59531 43.4106C4.73338 43.8739 5.15935 44.1916 5.64298 44.1916H19.4537H33.3645C33.8603 44.1916 34.2937 43.8582 34.4208 43.3789L35.2371 40.3037H19.4537Z" fill="#48484B" stroke="#1D1E1C" stroke-miterlimit="10" stroke-linecap="round" stroke-linejoin="round"/>
<path d="M34.8813 41.6432L35.2367 40.3037H3.67041L4.06932 41.6432H34.8813Z" fill="#1D1E1C" stroke="#1D1E1C" stroke-miterlimit="10" stroke-linecap="round" stroke-linejoin="round"/>
<path d="M26.7245 29.3257V27.8701C26.7245 27.8701 22.2066 26.498 19.4539 26.498C16.4592 26.498 12.1833 27.8701 12.1833 27.8701V29.3257C12.1833 30.8872 15.4385 32.153 19.4539 32.153C23.4693 32.1534 26.7245 30.8872 26.7245 29.3257Z" fill="#363538" stroke="#1D1E1C" stroke-miterlimit="10" stroke-linecap="round" stroke-linejoin="round"/>
<path d="M19.4539 30.6975C23.4693 30.6975 26.7245 29.4317 26.7245 27.8702C26.7245 26.3088 23.4693 25.043 19.4539 25.043C15.4385 25.043 12.1833 26.3088 12.1833 27.8702C12.1833 29.4317 15.4385 30.6975 19.4539 30.6975Z" fill="#565558" stroke="#1D1E1C" stroke-miterlimit="10" stroke-linecap="round" stroke-linejoin="round"/>
<path d="M22.9482 27.4977V26.2512C22.9482 26.2512 20.7767 25.5918 19.4537 25.5918C18.0142 25.5918 15.9592 26.2512 15.9592 26.2512V27.4977C15.9592 28.248 17.5239 28.8568 19.4537 28.8568C21.3835 28.8568 22.9482 28.248 22.9482 27.4977Z" fill="#363538" stroke="#1D1E1C" stroke-miterlimit="10" stroke-linecap="round" stroke-linejoin="round"/>
<path d="M19.4537 27.3608C21.3836 27.3608 22.9482 26.7523 22.9482 26.0017C22.9482 25.2511 21.3836 24.6426 19.4537 24.6426C17.5238 24.6426 15.9592 25.2511 15.9592 26.0017C15.9592 26.7523 17.5238 27.3608 19.4537 27.3608Z" fill="#565558" stroke="#1D1E1C" stroke-miterlimit="10" stroke-linecap="round" stroke-linejoin="round"/>
<path d="M19.4539 13.9353C20.6527 13.9353 21.6245 13.5574 21.6245 13.0912C21.6245 12.625 20.6527 12.2471 19.4539 12.2471C18.255 12.2471 17.2832 12.625 17.2832 13.0912C17.2832 13.5574 18.255 13.9353 19.4539 13.9353Z" fill="#D52F25" stroke="#1D1E1C" stroke-miterlimit="10" stroke-linecap="round" stroke-linejoin="round"/>
<path d="M17.2827 13.0908V25.446C17.2827 25.9123 18.2547 26.2901 19.4534 26.2901C20.6521 26.2901 21.624 25.912 21.624 25.446V13.0908H17.2827Z" fill="#B5B8BA" stroke="#1D1E1C" stroke-miterlimit="10" stroke-linecap="round" stroke-linejoin="round"/>
<path d="M19.4538 18.6811C18.6407 18.6811 17.8381 18.5474 17.069 18.2838C16.4924 18.0861 16.1052 17.544 16.1052 16.9349V14.936C16.1052 14.6108 16.3684 14.3477 16.6936 14.3477H22.214C22.5391 14.3477 22.8023 14.6108 22.8023 14.936V16.9349C22.8023 17.5444 22.4152 18.0865 21.8386 18.2838C21.069 18.5474 20.2665 18.6811 19.4538 18.6811Z" fill="#951828"/>
<path d="M22.2136 14.9355V16.9348C22.2136 17.2929 21.9861 17.611 21.6476 17.7275C20.9364 17.971 20.1951 18.093 19.4534 18.093C18.712 18.093 17.9703 17.971 17.2596 17.7275C16.9211 17.6114 16.6936 17.2929 16.6936 16.9348V14.9355H22.2136ZM22.2136 13.7588H16.6936C16.0436 13.7588 15.5168 14.2856 15.5168 14.9355V16.9348C15.5168 17.7953 16.064 18.5614 16.8779 18.8403C17.7087 19.125 18.5751 19.2694 19.4534 19.2694C20.3316 19.2694 21.198 19.125 22.0288 18.8403C22.8431 18.561 23.3903 17.7953 23.3903 16.9348V14.9355C23.3903 14.2856 22.8635 13.7588 22.2136 13.7588Z" fill="#1D1E1C"/>
<path d="M19.4538 16.1722C15.1576 16.1722 11.6624 12.6769 11.6624 8.3807C11.6624 4.08451 15.1576 0.588867 19.4538 0.588867C23.75 0.588867 27.2452 4.08411 27.2452 8.38031C27.2452 12.6765 23.75 16.1722 19.4538 16.1722Z" fill="#D52F25"/>
<path d="M19.4538 1.17672C23.4319 1.17672 26.6569 4.40171 26.6569 8.37981C26.6569 12.3579 23.4319 15.5829 19.4538 15.5829C15.4757 15.5829 12.2507 12.3579 12.2507 8.37981C12.2503 4.40171 15.4753 1.17672 19.4538 1.17672ZM19.4538 0C14.8332 0 11.074 3.75922 11.074 8.37981C11.074 13.0004 14.8332 16.7596 19.4538 16.7596C24.0744 16.7596 27.8336 13.0004 27.8336 8.37981C27.8336 3.75922 24.0744 0 19.4538 0Z" fill="#1D1E1C"/>
<path d="M12.5869 10.5566C13.5099 13.4706 16.2343 15.5832 19.4535 15.5832C22.6726 15.5832 25.3971 13.4706 26.32 10.5566C26.32 10.5566 23.9187 13.935 19.4535 13.935C14.9882 13.9346 12.5869 10.5566 12.5869 10.5566Z" fill="#951828"/>
<path d="M24.5126 5.38042C23.4559 3.12034 20.1964 1.61335 19.1777 2.79674C18.3172 3.79656 19.8991 4.38649 19.8991 6.9941C19.8991 8.98118 20.7294 11.9477 23.0182 11.8634C25.0037 11.7908 25.8521 8.24652 24.5126 5.38042Z" fill="#D9443B"/>
<path d="M11.1065 31.8146C11.1065 32.3834 9.93252 32.8446 8.48477 32.8446C7.03701 32.8446 5.86304 32.3834 5.86304 31.8146C5.86304 31.6134 5.86304 31.0435 5.86304 31.0435C6.32706 30.7536 10.644 30.7713 11.1069 31.0635C11.1065 31.0631 11.1065 31.615 11.1065 31.8146Z" fill="#951828" stroke="#1D1E1C" stroke-miterlimit="10" stroke-linecap="round" stroke-linejoin="round"/>
<path d="M8.48428 32.0737C9.93222 32.0737 11.106 31.6126 11.106 31.0437C11.106 30.4748 9.93222 30.0137 8.48428 30.0137C7.03634 30.0137 5.86255 30.4748 5.86255 31.0437C5.86255 31.6126 7.03634 32.0737 8.48428 32.0737Z" fill="#D52F25" stroke="#1D1E1C" stroke-miterlimit="10" stroke-linecap="round" stroke-linejoin="round"/>
</svg>
