<svg width="56" height="48" viewBox="0 0 56 48" fill="none" xmlns="http://www.w3.org/2000/svg">
  <path fill-rule="evenodd" clip-rule="evenodd"
        d="M55.575 24.7002L46.143 44.1642C46.143 44.1642 22.763 53.6732 6.225 40.0382L2.213 31.5442L6.839 30.6092L1.23 29.4572L0 26.8492L1.865 18.6062L8.207 7.27619C8.207 7.27619 33.834 -7.31781 50.297 8.82119L55.575 24.7002Z"
        fill="url(#paint0_linear)"/>
  <path fill-rule="evenodd" clip-rule="evenodd"
        d="M50.301 8.82135L46.197 3.50235C46.197 3.50235 29.568 -5.44965 6.86298 5.27035L1.62098 16.9583L0.000976562 26.8513L1.86798 18.6063L8.20198 7.27635C8.20298 7.27635 28.218 -3.84665 50.301 8.82135Z"
        fill="#FF8B3E"/>
  <path fill-rule="evenodd" clip-rule="evenodd"
        d="M6.86295 5.26953L8.20295 7.27653L1.86895 18.6065L0.00195312 26.8515L1.62095 16.9585L6.86295 5.26953Z"
        fill="#E06834"/>
  <path fill-rule="evenodd" clip-rule="evenodd" d="M6.2627 10.7464L14.2217 4.86035L7.4967 6.21935L6.2627 10.7464Z"
        fill="#E06834"/>
  <path fill-rule="evenodd" clip-rule="evenodd"
        d="M23.5352 2.97808L26.6532 4.19808L37.5752 3.82508L31.1332 2.45508L23.5352 2.97808Z" fill="#E06834"/>
  <path fill-rule="evenodd" clip-rule="evenodd"
        d="M31.1055 47.3019L35.8925 46.3349L44.9885 41.6029L51.0265 34.0889L46.1485 44.1619C46.1475 44.1609 37.3865 47.3569 31.1055 47.3019Z"
        fill="#801B34"/>
  <path fill-rule="evenodd" clip-rule="evenodd" d="M54.6286 21.8613L43.7596 26.2033L30.0166 28.9793L54.6286 21.8613Z"
        fill="#892334"/>
  <g opacity="0.2">
    <path opacity="0.2" fill-rule="evenodd" clip-rule="evenodd"
          d="M6.22168 40.0338C6.22168 40.0338 20.2837 16.8398 51.1237 11.3018L52.4077 15.1688C52.4077 15.1688 25.4847 13.7768 8.58368 41.7968L6.22168 40.0338Z"
          fill="url(#paint1_linear)"/>
    <path opacity="0.2" fill-rule="evenodd" clip-rule="evenodd"
          d="M16.083 45.489C16.083 45.489 34.346 29.631 53.55 28.873L51.49 33.129C51.49 33.129 32.713 30.318 19.183 46.369L16.083 45.489Z"
          fill="url(#paint2_linear)"/>
    <path opacity="0.2" fill-rule="evenodd" clip-rule="evenodd"
          d="M5.31315 38.1072C5.31315 38.1072 21.9872 10.6302 40.6222 4.62817L37.5742 3.82617C37.5742 3.82617 19.4631 13.0612 4.70215 36.8152L5.31315 38.1072Z"
          fill="url(#paint3_linear)"/>
    <path opacity="0.2" fill-rule="evenodd" clip-rule="evenodd"
          d="M11.0088 21.1645C11.0088 21.1645 13.9328 9.84549 25.1208 10.8225C25.1198 10.8225 16.0828 19.1725 11.0088 21.1645Z"
          fill="url(#paint4_linear)"/>
    <path opacity="0.2" fill-rule="evenodd" clip-rule="evenodd"
          d="M23.9619 27.1496C23.9619 27.1496 26.2469 22.7576 36.2129 20.0996C36.2129 20.0986 29.5859 22.8556 23.9619 27.1496Z"
          fill="url(#paint5_linear)"/>
  </g>
  <path fill-rule="evenodd" clip-rule="evenodd"
        d="M41.791 5.00098L47.874 8.77198L50.244 12.507L53.635 18.866L50.301 8.82098L46.327 6.53698L41.791 5.00098Z"
        fill="#B64034"/>
  <path fill-rule="evenodd" clip-rule="evenodd"
        d="M6.26295 10.7461L2.88595 18.7551L1.98095 23.3421L0.00195312 26.8511L1.86895 18.6061L6.26295 10.7461Z"
        fill="#982F34"/>
  <path fill-rule="evenodd" clip-rule="evenodd" d="M40.1387 26.9345L44.1307 26.6015L50.4737 23.5215L40.1387 26.9345Z"
        fill="#DC634F"/>
  <path fill-rule="evenodd" clip-rule="evenodd" d="M2.21387 31.5434L4.20887 30.0684L6.83987 30.6084L2.21387 31.5434Z"
        fill="#FF8B3E"/>
  <path fill-rule="evenodd" clip-rule="evenodd" d="M13.7871 44.6128L15.7861 40.3428L14.5161 44.9178L13.7871 44.6128Z"
        fill="#892334"/>
  <path fill-rule="evenodd" clip-rule="evenodd" d="M17.0732 7.96704L22.0172 7.56304L19.9492 7.29004L17.0732 7.96704Z"
        fill="#892334"/>
  <path fill-rule="evenodd" clip-rule="evenodd" d="M31.2598 42.9584L35.4078 40.1074L33.5288 42.4994L31.2598 42.9584Z"
        fill="#892334"/>
  <path fill-rule="evenodd" clip-rule="evenodd"
        d="M54.0447 20.0986V25.2286L52.9717 30.0686L55.5747 24.7006L54.0447 20.0986Z" fill="#982F34"/>
  <path opacity="0.4" fill-rule="evenodd" clip-rule="evenodd"
        d="M6.22168 40.0341C6.22168 40.0341 17.6807 23.3771 34.8167 16.3281C34.8167 16.3271 17.5237 21.5261 6.22168 40.0341Z"
        fill="#D9772F"/>
  <path opacity="0.4" fill-rule="evenodd" clip-rule="evenodd"
        d="M16.083 45.4897C16.083 45.4897 31.654 30.9427 53.55 28.8737C53.551 28.8737 35.635 28.2687 16.083 45.4897Z"
        fill="#D9772F"/>
  <path fill-rule="evenodd" clip-rule="evenodd" d="M48.3524 33.9023L46.6474 37.6213L43.9004 41.5323L48.3524 33.9023Z"
        fill="#801B34"/>
  <path fill-rule="evenodd" clip-rule="evenodd" d="M41.791 41.7982L45.306 36.9492L43.549 40.1072L41.791 41.7982Z"
        fill="#801B34"/>
  <path opacity="0.5" fill-rule="evenodd" clip-rule="evenodd"
        d="M15.122 34.1475L37.8288 11.4397L42.5902 14.4447L19.0047 38.0303L15.122 34.1475Z" fill="black"/>
  <path fill-rule="evenodd" clip-rule="evenodd"
        d="M13.0008 34.8547L36.4147 11.4397L41.1762 14.4447L16.8835 38.7374L13.0008 34.8547Z"
        fill="url(#paint6_linear)"/>
  <path opacity="0.5" fill-rule="evenodd" clip-rule="evenodd"
        d="M40.4689 34.1475L17.762 11.4397L13.0006 14.4447L36.5861 38.0303L40.4689 34.1475Z" fill="black"/>
  <path fill-rule="evenodd" clip-rule="evenodd"
        d="M42.59 34.8547L19.1761 11.4397L14.4147 14.4447L38.7073 38.7374L42.59 34.8547Z" fill="url(#paint7_linear)"/>
  <defs>
    <linearGradient id="paint0_linear" x1="32.1968" y1="47.6025" x2="22.9876" y2="2.01225"
                    gradientUnits="userSpaceOnUse">
      <stop stop-color="#8C2747"/>
      <stop offset="1" stop-color="#D65731"/>
    </linearGradient>
    <linearGradient id="paint1_linear" x1="4.52976" y1="31.6564" x2="53.7303" y2="21.7179"
                    gradientUnits="userSpaceOnUse">
      <stop stop-color="#C77CBD"/>
      <stop offset="1" stop-color="#974577"/>
    </linearGradient>
    <linearGradient id="paint2_linear" x1="15.3017" y1="41.6201" x2="54.5251" y2="33.697"
                    gradientUnits="userSpaceOnUse">
      <stop stop-color="#C77CBD"/>
      <stop offset="1" stop-color="#974577"/>
    </linearGradient>
    <linearGradient id="paint3_linear" x1="2.28365" y1="24.8366" x2="43.0417" y2="16.6035"
                    gradientUnits="userSpaceOnUse">
      <stop stop-color="#C77CBD"/>
      <stop offset="1" stop-color="#974577"/>
    </linearGradient>
    <linearGradient id="paint4_linear" x1="10.2223" y1="17.2729" x2="25.7877" y2="14.1287"
                    gradientUnits="userSpaceOnUse">
      <stop stop-color="#C77CBD"/>
      <stop offset="1" stop-color="#974577"/>
    </linearGradient>
    <linearGradient id="paint5_linear" x1="23.5174" y1="24.9511" x2="36.6564" y2="22.2971"
                    gradientUnits="userSpaceOnUse">
      <stop stop-color="#C77CBD"/>
      <stop offset="1" stop-color="#974577"/>
    </linearGradient>
    <linearGradient id="paint6_linear" x1="23.6796" y1="25.734" x2="38.0725" y2="11.3411"
                    gradientUnits="userSpaceOnUse">
      <stop stop-color="#FF901D"/>
      <stop offset="1" stop-color="#FFB511"/>
    </linearGradient>
    <linearGradient id="paint7_linear" x1="31.9112" y1="25.734" x2="17.5183" y2="11.3411"
                    gradientUnits="userSpaceOnUse">
      <stop stop-color="#FF901D"/>
      <stop offset="1" stop-color="#FFB511"/>
    </linearGradient>
  </defs>
</svg>
