<svg width="472" height="361" viewBox="0 0 472 361" fill="none" xmlns="http://www.w3.org/2000/svg">
<path d="M438.681 112.796C438.681 112.796 356.746 137.033 310.06 40.9394C310.06 40.9394 270.239 117.402 210.015 51.3629C210.015 51.3629 223.846 141.439 132.686 119.802C132.686 119.802 178.36 196.012 95.1169 217.879C95.1169 217.879 192.496 237.227 101.31 319.98C101.31 319.98 208.061 256.592 236.573 338.253C236.573 338.253 291.246 239.479 364.658 346.753C364.658 346.753 366.908 221.623 471.505 254.89C471.503 254.889 383.425 179.773 438.681 112.796Z" fill="#353434"/>
<path d="M423.766 120.565C423.766 120.565 349.334 142.583 306.924 55.2899C306.924 55.2899 270.751 124.75 216.042 64.7597C216.042 64.7597 228.607 146.587 145.795 126.931C145.795 126.931 194.223 204.152 111.668 216.026C111.668 216.026 195.96 249.888 117.293 308.776C117.293 308.776 214.268 251.193 240.169 325.376C240.169 325.376 290.884 230.76 357.572 328.209C357.572 328.209 355.786 214.165 450.802 244.385C450.801 244.384 373.571 181.408 423.766 120.565Z" fill="white"/>
<path d="M160.026 110.887L92.5919 12.4089L115.244 3.56903L160.026 110.887Z" fill="#353434"/>
<path d="M108.394 259.076L12.0748 298.76L2.67343 283.494L108.394 259.076Z" fill="#353434"/>
<path d="M17.7426 226.997L85.1624 246.614L25.4733 217.877L17.7426 226.997Z" fill="#353434"/>
<path d="M16.6789 149.989L16.4677 166.047L3.12004 174.976L18.3268 180.138L22.6934 195.592L32.3023 182.725L48.3493 183.347L39.0825 170.232L44.6313 155.162L29.295 159.924L16.6789 149.989Z" fill="white"/>
<path d="M188.392 332.01L179.574 336.564L170.823 331.882L172.43 341.677L165.273 348.553L175.084 350.05L179.413 358.981L183.869 350.114L193.7 348.758L186.643 341.779L188.392 332.01Z" fill="white"/>
<path d="M69.324 89.0772L64.8954 93.3207L58.8888 92.0781L61.5568 97.6017L58.5184 102.93L64.5965 102.1L68.726 106.637L69.8133 100.6L75.4032 98.0745L69.9985 95.1736L69.324 89.0772Z" fill="white"/>
</svg>
