<svg width="360" height="351" viewBox="0 0 360 351" fill="none" xmlns="http://www.w3.org/2000/svg">
<path d="M336.686 124.698C336.686 124.698 267.999 112.5 267.999 44C267.999 44 187.735 102.62 142.337 39.6701C142.337 39.6701 120.311 105.076 42.499 73.5C42.499 73.5 94.8836 148.975 18.999 154C18.999 154 105.321 188.169 15.3678 241.501C15.3678 241.501 116.787 206.307 132.429 277.103C132.429 277.103 192.069 205.141 244.299 303.654C244.299 303.654 260.81 202.217 349.109 245.311C349.109 245.311 280.224 170.706 336.686 124.698Z" fill="#353434"/>
<path d="M322.306 128.346C322.306 128.346 255.999 110 265.999 49.8643C265.999 49.8643 187.057 107.745 145.709 49.8643C145.709 49.8643 123.697 109.658 52.999 80.5C52.999 80.5 92.3826 143.76 30.9214 157C30.9214 157 106.92 198.801 30.9215 234.822C30.9215 234.822 122.897 202.75 137.255 267.763C137.255 267.763 193.499 208 240.337 288.534C240.337 288.534 261.499 204.5 332.005 234.315C332.005 234.315 280.499 176.5 322.306 128.346Z" fill="white"/>
</svg>
