<svg width="518" height="484" viewBox="0 0 518 484" fill="none" xmlns="http://www.w3.org/2000/svg">
<g clip-path="url(#clip0)">
<path d="M413.425 112.928C413.425 112.928 315.614 142.034 258.709 45.8521C258.709 45.8521 211.864 126.364 139.076 61.7206C139.076 61.7206 156.591 153.426 47.2486 135.939C47.2486 135.939 102.73 211.771 3.32975 238.513C3.32975 238.513 120.091 253.329 11.8315 342.951C11.8315 342.951 138.927 272.393 173.925 354.705C173.925 354.705 238.309 250.534 327.321 356.803C327.321 356.803 328.679 228.3 454.228 257.023C454.227 257.023 348.003 184.506 413.425 112.928Z" fill="#353434"/>
<path d="M395.657 121.671C395.657 121.671 306.804 148.111 255.11 60.7373C255.11 60.7373 212.555 133.876 146.432 75.1526C146.432 75.1526 162.344 158.459 63.0153 142.574C63.0153 142.574 121.804 219.3 23.1184 235.754C23.1184 235.754 124.37 266.138 30.8412 330.627C30.8412 330.627 146.297 266.531 178.09 341.305C178.09 341.305 237.782 241.603 318.642 338.141C318.642 338.141 315.286 221.221 429.337 247.314C429.336 247.314 336.226 186.693 395.657 121.671Z" fill="white"/>
<path d="M515.777 176.214C515.279 176.956 515.023 177.498 514.69 178.097L513.79 179.747C513.221 180.79 512.669 181.714 512.106 182.468C511.54 183.223 511.01 183.808 510.482 184.22C510.331 184.301 510.226 184.422 510.095 184.512C509.955 184.588 509.84 184.689 509.699 184.758C509.443 184.924 509.165 185.07 508.866 185.205C507.688 185.771 505.898 186.208 503.762 186.553C501.608 186.914 499.189 187.164 496.389 187.923L496.246 188.352C497.402 188.755 498.562 189.151 499.751 189.468C500.942 189.771 502.156 189.995 503.383 190.152C504.614 190.271 505.86 190.354 507.109 190.22C508.353 190.104 509.612 189.85 510.776 189.307C511.932 188.759 512.974 187.953 513.783 186.963C514.591 185.969 515.159 184.813 515.547 183.622C515.933 182.428 516.149 181.193 516.237 179.959C516.276 179.34 516.278 178.722 516.265 178.107L516.233 177.188C516.22 176.902 516.2 176.535 516.21 176.348L515.777 176.214Z" fill="#353434"/>
<path d="M296.082 403.772C295.648 404.458 295.429 404.956 295.144 405.508L294.369 407.027C293.88 407.987 293.402 408.84 292.91 409.539C292.415 410.237 291.95 410.782 291.482 411.169C291.347 411.247 291.255 411.359 291.138 411.444C291.012 411.516 290.911 411.611 290.785 411.678C290.557 411.836 290.308 411.974 290.041 412.104C288.986 412.648 287.374 413.09 285.444 413.458C283.499 413.84 281.311 414.129 278.79 414.888L278.672 415.281C279.73 415.616 280.793 415.946 281.879 416.204C282.968 416.449 284.074 416.621 285.192 416.732C286.311 416.808 287.444 416.852 288.574 416.699C289.699 416.563 290.836 416.3 291.877 415.778C292.912 415.252 293.837 414.494 294.545 413.575C295.254 412.654 295.74 411.591 296.061 410.5C296.381 409.407 296.546 408.281 296.593 407.159C296.614 406.597 296.6 406.036 296.572 405.479L296.519 404.646C296.499 404.386 296.473 404.054 296.477 403.884L296.082 403.772Z" fill="#353434"/>
<path d="M255.539 421.761C254.844 422.055 254.44 422.31 253.964 422.517C253.527 422.733 253.14 422.898 252.812 423.003C252.652 423.074 252.495 423.066 252.372 423.119C252.236 423.13 252.133 423.134 252.035 423.157C251.933 423.126 251.861 423.152 251.779 423.147C251.691 423.124 251.621 423.139 251.532 423.14C251.185 423.158 250.54 423.022 249.726 422.912C249.318 422.798 248.861 422.738 248.353 422.656C247.838 422.571 247.316 422.468 246.635 422.473L246.46 422.647L247.499 423.675C247.867 423.996 248.278 424.272 248.665 424.572C249.51 425.068 250.414 425.565 251.465 425.603C251.722 425.598 251.98 425.557 252.236 425.532C252.487 425.474 252.729 425.375 252.973 425.296C253.195 425.167 253.426 425.05 253.633 424.904C253.822 424.737 254.039 424.596 254.203 424.405C254.552 424.043 254.854 423.643 255.101 423.217C255.339 422.803 255.552 422.299 255.715 421.931L255.539 421.761Z" fill="#353434"/>
<path d="M447.83 119.246C448.024 118.438 448.06 117.912 448.188 117.354C448.282 116.826 448.389 116.374 448.51 116.014C448.551 115.826 448.661 115.692 448.694 115.548C448.773 115.42 448.837 115.326 448.881 115.225C448.974 115.154 448.998 115.074 449.057 115.005C449.134 114.942 449.166 114.87 449.223 114.791C449.435 114.471 449.975 113.988 450.605 113.338C450.973 113.051 451.325 112.684 451.731 112.287C452.141 111.886 452.575 111.489 453.014 110.883L452.973 110.614L451.382 110.864C450.856 110.981 450.345 111.165 449.824 111.313C448.833 111.738 447.8 112.216 447.081 113.123C446.917 113.354 446.785 113.611 446.639 113.854C446.528 114.115 446.457 114.394 446.367 114.662C446.336 114.942 446.289 115.224 446.284 115.504C446.308 115.781 446.292 116.066 446.355 116.336C446.447 116.882 446.605 117.411 446.822 117.909C447.034 118.39 447.342 118.908 447.561 119.294L447.83 119.246Z" fill="#353434"/>
<path d="M384.134 7.65337C385.803 10.625 387.231 13.3072 388.152 15.8802C389.084 18.4563 389.404 20.783 389.118 23.0519C388.99 24.1972 388.681 25.3528 388.276 26.554C387.848 27.7538 387.268 28.9773 386.619 30.2456C385.317 32.8002 383.566 35.3621 381.924 38.4103L382.168 38.7361C384.741 36.8746 387.198 34.7871 389.181 32.2538C390.171 30.9914 391.066 29.6439 391.767 28.1832C392.446 26.7171 392.951 25.1546 393.161 23.5343C393.57 20.2742 392.639 16.9615 390.964 14.2217C389.295 11.4547 387.012 9.12171 384.359 7.31466L384.134 7.65337Z" fill="#353434"/>
<path d="M298.68 33.8725C298.703 33.0681 298.639 32.5331 298.605 31.9182L298.498 30.2321C298.43 29.1657 298.408 28.1975 298.474 27.3537C298.543 26.5077 298.665 25.8081 298.868 25.2421C298.944 25.1068 298.966 24.9651 299.023 24.8342C299.093 24.7089 299.132 24.5767 299.205 24.4564C299.32 24.2064 299.462 23.9629 299.625 23.7164C300.25 22.72 301.402 21.5293 302.862 20.2411C304.327 18.9339 306.048 17.5829 307.814 15.6621L307.717 15.2666C306.644 15.5148 305.571 15.7704 304.515 16.0987C303.463 16.4402 302.432 16.8519 301.424 17.321C300.43 17.8209 299.442 18.3558 298.556 19.0572C297.665 19.7418 296.828 20.5398 296.203 21.5098C295.587 22.4815 295.181 23.5942 295.041 24.7357C294.902 25.8796 295.025 27.0319 295.302 28.1234C295.58 29.2176 296.008 30.2608 296.535 31.2416C296.802 31.7306 297.096 32.2023 297.401 32.6635L297.867 33.3472C298.014 33.5587 298.206 33.8285 298.287 33.9757L298.68 33.8725Z" fill="#353434"/>
<path d="M292.373 25.5584C292.48 24.8188 292.469 24.3451 292.538 23.8345C292.578 23.3532 292.636 22.9397 292.716 22.6076C292.737 22.4358 292.825 22.3063 292.842 22.1752C292.902 22.0539 292.952 21.9651 292.982 21.8706C293.061 21.799 293.075 21.7258 293.122 21.6583C293.186 21.596 293.209 21.528 293.254 21.4527C293.417 21.1487 293.862 20.6713 294.373 20.0362C294.678 19.7481 294.963 19.3905 295.293 19.0022C295.629 18.6088 295.984 18.2181 296.328 17.6381L296.269 17.401L294.864 17.7564C294.403 17.9034 293.96 18.1111 293.506 18.2874C292.652 18.7496 291.768 19.2625 291.197 20.1349C291.069 20.3547 290.973 20.5958 290.863 20.826C290.785 21.0685 290.744 21.3243 290.685 21.5723C290.681 21.8259 290.662 22.0824 290.68 22.3322C290.725 22.5783 290.734 22.8349 290.813 23.0711C290.94 23.5521 291.126 24.0126 291.361 24.4419C291.59 24.8555 291.909 25.2947 292.138 25.6216L292.373 25.5584Z" fill="#353434"/>
<path d="M363.016 73.7671C362.339 74.0826 361.948 74.3501 361.483 74.5716C361.057 74.8007 360.68 74.9787 360.358 75.0936C360.203 75.1699 360.046 75.1669 359.927 75.2248C359.793 75.2398 359.691 75.2479 359.595 75.2733C359.492 75.2468 359.423 75.2752 359.341 75.2723C359.254 75.2529 359.185 75.2711 359.098 75.2745C358.753 75.3046 358.111 75.1925 357.301 75.1117C356.893 75.0132 356.437 74.9705 355.931 74.906C355.418 74.8406 354.897 74.7563 354.223 74.7863L354.057 74.9655L355.122 75.9471C355.497 76.2527 355.914 76.5099 356.309 76.7946C357.162 77.2561 358.076 77.7169 359.118 77.7166C359.372 77.703 359.627 77.6519 359.88 77.6183C360.126 77.5519 360.362 77.4456 360.602 77.359C360.817 77.2236 361.041 77.0998 361.242 76.948C361.423 76.7749 361.633 76.6274 361.788 76.4333C362.122 76.0637 362.406 75.656 362.636 75.2245C362.857 74.8068 363.05 74.2997 363.198 73.9293L363.016 73.7671Z" fill="#353434"/>
<path d="M317.997 45.7733L290.065 131.117L324.74 49.742L317.997 45.7733Z" fill="white"/>
<path d="M341.829 51.7223L288.76 137.284L331.069 48.3641L341.829 51.7223Z" fill="white"/>
<path d="M353.192 60.207L294.171 136.027L347.207 52.5352L353.192 60.207Z" fill="white"/>
<path d="M321.057 21.4963C327.143 19.9471 333.284 21.3078 338.02 24.6987C339.682 17.4689 345.227 11.3978 352.912 9.44208C363.86 6.65596 374.994 13.272 377.78 24.2204C379.957 32.771 376.397 41.4347 369.519 46.1469C369.619 46.4733 369.713 46.8045 369.798 47.1394C372.584 58.0878 365.968 69.2217 355.02 72.0087C345.408 74.455 335.655 69.6529 331.531 61.0354C331.402 61.0708 331.277 61.1102 331.147 61.1439C320.198 63.93 309.064 57.314 306.278 46.3656C303.491 35.4173 310.108 24.2833 321.057 21.4963Z" fill="#353434"/>
<path d="M323.31 15.505C329.396 13.9558 335.537 15.3166 340.273 18.7075C341.936 11.4776 347.48 5.4066 355.165 3.45084C366.113 0.664726 377.247 7.28077 380.033 18.2292C382.209 26.7799 378.65 35.4435 371.772 40.1556C371.873 40.4821 371.966 40.8133 372.051 41.1482C374.838 52.0966 368.221 63.2305 357.273 66.0166C347.661 68.4628 337.908 63.6608 333.784 55.0433C333.656 55.0785 333.53 55.1181 333.4 55.1518C322.451 57.9379 311.317 51.3219 308.531 40.3734C305.744 29.4261 312.361 18.2911 323.31 15.505Z" fill="white"/>
<path d="M294.901 77.6297L293.203 41.2762L280.782 35.0913L294.901 77.6297Z" fill="#353434"/>
<path d="M482.707 163.904L378.981 225.103L474.316 161.248L482.707 163.904Z" fill="white"/>
<path d="M465.582 156.112L378.981 225.104L458.186 152.321L465.582 156.112Z" fill="white"/>
<path d="M463.696 170.343C462.078 170.946 460.343 171.317 458.529 171.415C448.906 171.929 440.689 164.546 440.174 154.924C439.826 148.418 443.091 142.558 448.214 139.283C447.355 137.373 446.823 135.277 446.705 133.06C446.19 123.438 453.573 115.22 463.196 114.706C468.771 114.407 473.871 116.764 477.278 120.667C479.305 119.685 481.559 119.08 483.95 118.952C493.573 118.438 501.79 125.82 502.305 135.443C502.505 139.174 501.512 142.691 499.668 145.633C503.408 149.369 505.836 154.447 506.141 160.141C506.796 172.382 497.404 182.835 485.164 183.49C475.709 183.996 467.327 178.507 463.696 170.343Z" fill="#353434"/>
<path d="M470.98 168.14C469.363 168.743 467.628 169.114 465.813 169.211C456.191 169.726 447.973 162.343 447.459 152.72C447.11 146.215 450.376 140.355 455.499 137.08C454.64 135.17 454.108 133.074 453.989 130.857C453.475 121.235 460.858 113.017 470.48 112.502C476.056 112.204 481.156 114.561 484.562 118.464C486.591 117.482 488.843 116.877 491.234 116.749C500.857 116.234 509.075 123.617 509.589 133.24C509.789 136.971 508.797 140.489 506.952 143.429C510.693 147.166 513.12 152.243 513.425 157.938C514.081 170.179 504.688 180.632 492.448 181.287C482.995 181.793 474.612 176.303 470.98 168.14Z" fill="white"/>
<path d="M441.829 347.784C439.385 348.76 437.188 349.579 435.124 350.023C433.058 350.474 431.245 350.482 429.537 350.033C428.674 349.819 427.821 349.465 426.942 349.032C426.068 348.583 425.19 348.015 424.285 347.389C422.462 346.132 420.68 344.532 418.513 342.966L418.24 343.12C419.403 345.278 420.75 347.371 422.488 349.146C423.354 350.032 424.294 350.855 425.341 351.539C426.394 352.209 427.538 352.754 428.757 353.079C431.211 353.724 433.841 353.348 436.108 352.344C438.396 351.348 440.414 349.838 442.066 347.991L441.829 347.784Z" fill="#353434"/>
<path d="M469.526 286.035C469.75 286.547 469.941 286.881 470.141 287.257C470.324 287.636 470.526 287.955 470.69 288.294C471.048 288.938 471.343 289.543 471.613 290.095C472.15 291.209 472.483 292.149 472.758 293.107C472.874 293.331 472.886 293.595 472.953 293.843L473.071 294.217C473.104 294.345 473.102 294.485 473.138 294.618C473.187 294.892 473.259 295.162 473.323 295.454C473.347 295.749 473.401 296.053 473.461 296.368C473.478 296.525 473.546 296.687 473.554 296.852C473.567 297.017 473.579 297.185 473.606 297.358C473.647 297.7 473.71 298.059 473.782 298.433C473.877 299.181 473.966 299.968 474.226 300.891L474.512 301.022C474.806 300.335 475.12 299.653 475.397 298.954L475.701 297.864C475.804 297.501 475.91 297.138 475.944 296.758L476.1 295.631C476.129 295.252 476.105 294.869 476.11 294.488C476.104 294.298 476.117 294.105 476.096 293.916L476.008 293.349C475.943 292.971 475.913 292.586 475.775 292.224C475.343 290.746 474.498 289.408 473.419 288.337C472.875 287.807 472.298 287.309 471.666 286.895C471.354 286.681 471.021 286.502 470.696 286.315C470.381 286.142 469.996 285.957 469.746 285.811L469.526 286.035Z" fill="#353434"/>
<path d="M442.635 298.568C442.635 298.568 359.038 238.636 361.589 240.425C364.139 242.215 444.524 309.638 443.857 308.455C443.188 307.272 442.635 298.568 442.635 298.568Z" fill="white"/>
<path d="M356.765 235.635L437.561 309.322L433.49 312.274L356.765 235.635Z" fill="white"/>
<path d="M352.69 235.125L433.899 317.976L423.632 323.748L352.69 235.125Z" fill="white"/>
<path d="M457.947 319.674C455.158 321.967 451.985 323.48 448.693 324.25C448.264 328.841 446.077 333.265 442.234 336.423C434.594 342.7 423.312 341.595 417.036 333.956C410.759 326.316 411.864 315.035 419.503 308.758C420.097 308.27 420.716 307.832 421.35 307.432C419.369 299.213 422.061 290.21 429.033 284.483C438.751 276.499 453.102 277.904 461.086 287.622C469.071 297.339 467.665 311.69 457.947 319.674Z" fill="#353434"/>
<path d="M462.833 325.052C460.044 327.345 456.872 328.859 453.579 329.628C453.151 334.219 450.964 338.643 447.12 341.801C439.48 348.078 428.199 346.973 421.922 339.334C415.645 331.694 416.75 320.413 424.39 314.136C424.984 313.648 425.603 313.209 426.238 312.81C424.257 304.591 426.949 295.589 433.921 289.861C443.639 281.877 457.99 283.282 465.974 293C473.957 302.717 472.552 317.068 462.833 325.052Z" fill="white"/>
<path d="M459.998 193.396L418.406 210.708L459.802 201.065L459.998 193.396Z" fill="#353434"/>
<path d="M264.719 340.104L243.629 312.409L258.95 341.46L264.719 340.104Z" fill="#353434"/>
<path d="M226.598 291.065L267.751 384.674L262.679 390.371L226.598 291.065Z" fill="white"/>
<path d="M221.846 287.758L257.878 393.299L247.463 394.681L221.846 287.758Z" fill="white"/>
<path d="M284.969 375.175C286.217 376.075 287.352 377.176 288.323 378.472C293.471 385.346 292.073 395.092 285.199 400.24C280.551 403.72 274.593 404.205 269.629 402.032C268.639 403.615 267.35 405.047 265.767 406.233C258.893 411.381 249.148 409.983 243.999 403.109C241.016 399.127 240.236 394.18 241.44 389.722C239.707 388.707 238.143 387.337 236.863 385.629C231.715 378.755 233.114 369.009 239.988 363.861C242.653 361.865 245.75 360.857 248.843 360.767C249.759 356.145 252.317 351.83 256.385 348.784C265.129 342.235 277.526 344.014 284.075 352.758C289.133 359.51 289.218 368.441 284.969 375.175Z" fill="#353434"/>
<path d="M281.962 382.474C283.21 383.373 284.345 384.475 285.316 385.771C290.464 392.645 289.065 402.39 282.192 407.539C277.544 411.019 271.586 411.503 266.622 409.331C265.632 410.914 264.343 412.345 262.76 413.532C255.886 418.68 246.141 417.281 240.992 410.408C238.009 406.425 237.229 401.479 238.433 397.021C236.7 396.006 235.136 394.636 233.856 392.927C228.708 386.054 230.107 376.308 236.981 371.16C239.646 369.164 242.743 368.156 245.836 368.066C246.752 363.444 249.31 359.129 253.378 356.083C262.122 349.533 274.519 351.313 281.068 360.057C286.126 366.809 286.212 375.739 281.962 382.474Z" fill="white"/>
<path d="M379.246 350.134L371.879 357.338L361.769 355.353L366.344 364.585L361.332 373.588L371.525 372.089L378.538 379.638L380.264 369.48L389.609 365.143L380.482 360.363L379.246 350.134Z" fill="white"/>
<path d="M201.947 33.3984L202.266 39.7578L197.208 43.6264L203.355 45.2879L205.472 51.2938L208.951 45.9608L215.317 45.8044L211.32 40.8473L213.138 34.7444L207.189 37.0135L201.947 33.3984Z" fill="white"/>
<path d="M385.25 80.0821L383.331 83.5179L379.413 83.885L382.088 86.7717L381.226 90.6118L384.799 88.9603L388.185 90.966L387.717 87.0584L390.671 84.4583L386.81 83.695L385.25 80.0821Z" fill="white"/>
<path d="M273.517 442.945L271.598 446.381L267.679 446.748L270.354 449.635L269.493 453.475L273.064 451.823L276.45 453.829L275.983 449.922L278.937 447.322L275.077 446.558L273.517 442.945Z" fill="white"/>
<path d="M308.208 441.035L307.388 455.573L294.947 463.139L308.52 468.412L311.872 482.583L321.081 471.303L335.594 472.495L327.712 460.251L333.33 446.816L319.25 450.529L308.208 441.035Z" fill="white"/>
<path d="M436.671 46.9861L426.27 57.1776L411.978 54.3882L418.457 67.4288L411.387 80.1586L425.792 78.0268L435.714 88.6847L438.138 74.3262L451.34 68.1833L438.434 61.4406L436.671 46.9861Z" fill="white"/>
</g>
<defs>
<clipPath id="clip0">
<rect width="518" height="484" fill="white"/>
</clipPath>
</defs>
</svg>
