<svg width="642" height="481" viewBox="0 0 642 481" fill="none" xmlns="http://www.w3.org/2000/svg">
<path d="M345.898 2.97363L347.624 14.2176L339.341 22.0146L350.568 23.8466L355.424 34.1346L360.636 24.0226L371.921 22.5836L363.914 14.5026L366.033 3.32563L355.873 8.44263L345.898 2.97363Z" fill="white"/>
<path d="M559.791 344.832L557.192 348.315L552.85 348.148L555.359 351.696L553.858 355.774L558.008 354.484L561.422 357.171L561.478 352.827L565.089 350.409L560.974 349.014L559.791 344.832Z" fill="white"/>
<path d="M544.887 154.136C544.887 154.136 425.083 152.324 395.226 24.7791C395.226 24.7791 314.399 98.3547 255.643 0.498265C255.643 0.498265 242.96 109.201 126.651 51.2357C126.651 51.2357 162.082 155.524 41.3317 150.509C41.3317 150.509 166.889 208.094 14.068 270.283C14.068 270.283 181.271 236.029 191.477 340.369C191.477 340.369 300.282 246.497 362.548 396.601C362.548 396.601 409.331 253.38 539.832 329.603C539.832 329.603 446.401 211.195 544.887 154.136Z" fill="#353434"/>
<path d="M521.487 157.461C521.487 157.461 412.798 155.759 385.659 39.4544C385.659 39.4544 312.361 106.507 259.017 17.2575C259.017 17.2575 247.555 116.365 142.014 63.4661C142.014 63.4661 180.831 170.328 64.6518 153.948C64.6518 153.948 167.251 223.797 39.9669 263.144C39.9669 263.144 191.643 231.981 200.945 327.12C200.945 327.12 302.744 236.309 359.294 373.196C359.294 373.196 396.607 240.801 515.033 310.353C515.032 310.353 432.161 209.447 521.487 157.461Z" fill="white"/>
<path d="M465.698 430.492C462.792 430.451 460.205 430.355 457.913 429.933C455.615 429.518 453.763 428.757 452.212 427.576C451.423 426.991 450.703 426.269 449.991 425.456C449.289 424.627 448.636 423.676 447.978 422.654C446.652 420.6 445.513 418.213 443.968 415.698L443.623 415.739C443.894 418.433 444.381 421.138 445.401 423.683C445.908 424.953 446.518 426.19 447.295 427.331C448.085 428.46 449.021 429.501 450.125 430.349C452.353 432.046 455.194 432.777 457.931 432.716C460.685 432.669 463.383 431.985 465.85 430.803L465.698 430.492Z" fill="#353434"/>
<path d="M551.025 59.2588C551.468 62.9968 551.787 66.3348 551.636 69.3488C551.495 72.3698 550.834 74.8778 549.582 77.0708C548.966 78.1838 548.162 79.2318 547.239 80.2848C546.294 81.3268 545.184 82.3278 543.985 83.3468C541.574 85.3998 538.704 87.2688 535.739 89.6808L535.85 90.1168C539.262 89.3088 542.652 88.2228 545.747 86.4798C547.291 85.6118 548.775 84.6178 550.108 83.4258C551.423 82.2188 552.599 80.8398 553.5 79.2768C555.299 76.1268 555.753 72.3538 555.207 68.8508C554.677 65.3228 553.339 61.9758 551.4 59.0098L551.025 59.2588Z" fill="#353434"/>
<path d="M627.004 210.602C629.768 213.744 632.166 216.6 633.929 219.454C635.706 222.309 636.683 225.022 636.92 227.819C637.058 229.227 636.983 230.693 636.802 232.24C636.595 233.79 636.21 235.407 635.755 237.096C634.843 240.496 633.395 244.018 632.202 248.097L632.579 248.426C635.193 245.534 637.611 242.4 639.344 238.852C640.21 237.083 640.941 235.237 641.41 233.305C641.852 231.371 642.059 229.366 641.898 227.367C641.557 223.348 639.593 219.608 636.883 216.745C634.172 213.849 630.835 211.63 627.189 210.137L627.004 210.602Z" fill="#353434"/>
<path d="M520.104 379.274C520.115 379.891 520.169 380.312 520.213 380.781C520.239 381.244 520.31 381.655 520.333 382.07C520.425 382.879 520.47 383.62 520.51 384.298C520.585 385.661 520.526 386.76 520.401 387.853C520.424 388.131 520.324 388.405 520.289 388.686L520.249 389.118C520.229 389.263 520.168 389.404 520.148 389.556C520.082 389.855 520.042 390.161 519.983 390.485C519.882 390.796 519.808 391.129 519.735 391.475C519.686 391.642 519.687 391.836 519.624 392.007C519.568 392.181 519.509 392.357 519.463 392.545C519.359 392.912 519.272 393.304 519.186 393.716C518.966 394.519 518.724 395.358 518.598 396.411L518.834 396.665C519.424 396.089 520.034 395.526 520.613 394.931L521.384 393.948C521.644 393.622 521.906 393.297 522.101 392.924L522.738 391.841C522.928 391.468 523.066 391.067 523.232 390.681C523.307 390.484 523.402 390.294 523.46 390.092L523.611 389.476C523.705 389.064 523.838 388.657 523.85 388.23C524.037 386.541 523.741 384.817 523.096 383.269C522.766 382.498 522.389 381.746 521.92 381.056C521.693 380.705 521.43 380.382 521.178 380.053C520.93 379.743 520.617 379.391 520.422 379.136L520.104 379.274Z" fill="#353434"/>
<path d="M613.805 286.906C612.982 287.452 612.491 287.895 611.898 288.365L610.282 289.665C609.26 290.487 608.305 291.195 607.411 291.726C606.514 292.255 605.726 292.628 605.014 292.824C604.825 292.843 604.667 292.921 604.496 292.957C604.32 292.975 604.161 293.03 603.988 293.04C603.655 293.101 603.311 293.132 602.948 293.142C601.507 293.22 599.497 292.907 597.172 292.354C594.824 291.809 592.251 291.039 589.075 290.626L588.747 291.003C589.754 291.903 590.77 292.798 591.847 293.626C592.933 294.44 594.076 295.182 595.26 295.863C596.464 296.506 597.7 297.119 599.031 297.511C600.348 297.921 601.74 298.195 603.156 298.135C604.567 298.066 605.97 297.686 607.215 297.019C608.46 296.349 609.53 295.411 610.429 294.361C611.329 293.307 612.073 292.14 612.685 290.918C612.987 290.304 613.251 289.675 613.499 289.043L613.855 288.092C613.963 287.795 614.098 287.411 614.188 287.225L613.805 286.906Z" fill="#353434"/>
<path d="M156.181 327.837C155.763 328.63 155.565 329.196 155.297 329.828L154.576 331.567C154.12 332.666 153.667 333.646 153.186 334.457C152.702 335.269 152.236 335.908 151.755 336.375C151.613 336.472 151.521 336.603 151.4 336.707C151.268 336.798 151.165 336.911 151.032 336.995C150.794 337.189 150.533 337.363 150.249 337.529C149.135 338.218 147.398 338.843 145.306 339.414C143.199 340.002 140.815 340.508 138.106 341.561L138.009 342.004C139.203 342.283 140.401 342.554 141.619 342.744C142.838 342.92 144.071 343.014 145.311 343.041C146.55 343.029 147.801 342.979 149.032 342.713C150.259 342.466 151.487 342.079 152.589 341.416C153.682 340.747 154.635 339.834 155.336 338.761C156.036 337.686 156.48 336.473 156.739 335.246C156.997 334.015 157.082 332.761 157.038 331.522C157.012 330.902 156.948 330.286 156.871 329.675L156.741 328.763C156.697 328.479 156.639 328.115 156.629 327.928L156.181 327.837Z" fill="#353434"/>
<path d="M114.906 345.323C114.115 345.582 113.647 345.827 113.104 346.011C112.603 346.208 112.163 346.355 111.792 346.439C111.61 346.503 111.436 346.479 111.297 346.527C111.146 346.526 111.033 346.521 110.923 346.537C110.813 346.494 110.732 346.516 110.642 346.502C110.548 346.469 110.469 346.48 110.372 346.473C109.988 346.46 109.291 346.252 108.406 346.056C107.968 345.893 107.469 345.785 106.918 345.648C106.359 345.508 105.794 345.346 105.045 345.29L104.837 345.466L105.886 346.693C106.261 347.08 106.687 347.421 107.087 347.787C107.97 348.41 108.92 349.041 110.072 349.179C110.355 349.197 110.643 349.175 110.927 349.171C111.208 349.13 111.484 349.044 111.76 348.979C112.015 348.858 112.28 348.75 112.521 348.608C112.745 348.441 112.996 348.306 113.193 348.111C113.611 347.746 113.979 347.333 114.29 346.886C114.59 346.453 114.87 345.918 115.084 345.528L114.906 345.323Z" fill="#353434"/>
<path d="M568.674 200.029C569.213 199.287 569.473 198.767 569.84 198.252C570.16 197.753 570.46 197.338 570.736 197.023C570.857 196.848 571.027 196.758 571.121 196.626C571.256 196.529 571.361 196.461 571.448 196.376C571.574 196.343 571.632 196.272 571.721 196.226C571.827 196.195 571.89 196.134 571.982 196.078C572.334 195.841 573.09 195.578 574.008 195.182C574.505 195.045 575.019 194.82 575.6 194.587C576.19 194.352 576.799 194.132 577.504 193.699L577.576 193.408L575.848 192.989C575.263 192.885 574.663 192.856 574.07 192.786C572.879 192.799 571.624 192.848 570.505 193.469C570.24 193.635 569.997 193.841 569.746 194.028C569.522 194.246 569.331 194.501 569.126 194.736C568.976 195.009 568.809 195.276 568.685 195.558C568.593 195.852 568.456 196.135 568.405 196.436C568.268 197.032 568.205 197.638 568.215 198.238C568.227 198.818 568.321 199.477 568.382 199.963L568.674 200.029Z" fill="#353434"/>
<path d="M501.472 117.715C500.648 117.75 500.136 117.857 499.568 117.886C499.037 117.94 498.577 117.96 498.201 117.941C498.01 117.953 497.852 117.884 497.706 117.892C497.563 117.851 497.456 117.815 497.347 117.801C497.253 117.731 497.171 117.73 497.089 117.692C497.008 117.635 496.93 117.624 496.839 117.591C496.476 117.475 495.868 117.09 495.075 116.664C494.701 116.391 494.255 116.154 493.766 115.874C493.271 115.59 492.775 115.283 492.076 115.028L491.83 115.14L492.5 116.592C492.753 117.062 493.068 117.502 493.351 117.959C494.025 118.791 494.762 119.648 495.824 120.09C496.089 120.184 496.37 120.24 496.642 120.313C496.921 120.349 497.207 120.341 497.488 120.355C497.764 120.308 498.046 120.277 498.314 120.207C498.572 120.108 498.849 120.047 499.089 119.913C499.586 119.677 500.048 119.383 500.465 119.04C500.867 118.708 501.279 118.273 501.588 117.958L501.472 117.715Z" fill="#353434"/>
<path d="M467.437 70.0947L402.79 145.271L472.631 76.9997L467.437 70.0947Z" fill="white"/>
<path d="M489.214 86.2594L398.846 151.004L479.667 78.2754L489.214 86.2594Z" fill="white"/>
<path d="M497.203 99.7271L404.895 152.018L494.353 89.3691L497.203 99.7271Z" fill="white"/>
<path d="M480.847 46.6414C487.709 47.6414 493.394 51.6314 496.785 57.0954C501.544 50.4284 509.77 46.5894 518.434 47.8524C530.777 49.6514 539.325 61.1154 537.526 73.4594C536.121 83.0994 528.821 90.4244 519.81 92.3134C519.774 92.6894 519.729 93.0654 519.674 93.4434C517.875 105.786 506.411 114.334 494.067 112.535C483.23 110.956 475.322 101.926 474.769 91.3934C474.623 91.3754 474.478 91.3624 474.332 91.3404C461.989 89.5414 453.441 78.0774 455.24 65.7334C457.039 53.3904 468.504 44.8424 480.847 46.6414Z" fill="#353434"/>
<path d="M485.683 41.4871C492.545 42.4871 498.23 46.4771 501.621 51.9411C506.38 45.2741 514.606 41.4351 523.27 42.6981C535.613 44.4971 544.161 55.9621 542.362 68.3051C540.957 77.9451 533.656 85.2701 524.645 87.1591C524.609 87.5351 524.564 87.9111 524.509 88.2891C522.71 100.632 511.246 109.18 498.902 107.381C488.066 105.802 480.157 96.7721 479.604 86.2391C479.458 86.2211 479.313 86.2081 479.167 86.1871C466.824 84.3881 458.276 72.9241 460.075 60.5801C461.875 48.2361 473.34 39.6881 485.683 41.4871Z" fill="white"/>
<path d="M177.324 432.803C175.653 429.431 174.233 426.392 173.364 423.502C172.484 420.608 172.265 418.024 172.709 415.539C172.916 414.284 173.322 413.027 173.838 411.725C174.378 410.426 175.088 409.111 175.876 407.749C177.458 405.007 179.535 402.282 181.52 399.015L181.269 398.642C178.326 400.547 175.496 402.708 173.166 405.389C172.002 406.724 170.938 408.159 170.082 409.729C169.248 411.307 168.603 413.001 168.278 414.775C167.64 418.346 168.478 422.052 170.167 425.17C171.85 428.316 174.233 431.019 177.055 433.164L177.324 432.803Z" fill="#353434"/>
<path d="M273.049 408.782C272.978 409.667 273.018 410.261 273.021 410.941L273.042 412.807C273.056 413.986 273.025 415.056 272.903 415.983C272.779 416.912 272.604 417.676 272.347 418.289C272.255 418.433 272.223 418.588 272.153 418.73C272.068 418.864 272.018 419.008 271.93 419.136C271.789 419.405 271.619 419.666 271.425 419.928C270.679 420.991 269.341 422.238 267.657 423.574C265.967 424.932 263.992 426.323 261.935 428.34L262.02 428.782C263.217 428.57 264.414 428.349 265.598 428.047C266.777 427.731 267.938 427.336 269.077 426.877C270.201 426.383 271.321 425.849 272.339 425.126C273.361 424.422 274.328 423.591 275.073 422.556C275.808 421.52 276.32 420.316 276.54 419.065C276.758 417.812 276.69 416.534 276.446 415.315C276.201 414.093 275.789 412.918 275.265 411.806C274.999 411.251 274.701 410.715 274.391 410.188L273.917 409.408C273.767 409.167 273.571 408.858 273.489 408.691L273.049 408.782Z" fill="#353434"/>
<path d="M195.903 366.465C196.526 365.924 196.86 365.522 197.286 365.145C197.668 364.773 198.015 364.469 198.321 364.25C198.463 364.121 198.63 364.077 198.739 363.98C198.877 363.923 198.983 363.884 199.076 363.827C199.193 363.824 199.258 363.773 199.346 363.751C199.445 363.745 199.513 363.705 199.604 363.674C199.96 363.538 200.676 363.461 201.561 363.3C202.024 363.281 202.521 363.188 203.077 363.102C203.641 363.015 204.22 362.946 204.926 362.71L205.048 362.47L203.619 361.751C203.128 361.541 202.608 361.394 202.102 361.212C201.056 360.981 199.946 360.77 198.84 361.086C198.575 361.178 198.32 361.309 198.061 361.421C197.82 361.567 197.601 361.751 197.373 361.916C197.186 362.125 196.986 362.325 196.819 362.547C196.679 362.785 196.501 363.005 196.396 363.259C196.155 363.753 195.977 364.271 195.863 364.799C195.755 365.31 195.704 365.906 195.659 366.345L195.903 366.465Z" fill="#353434"/>
<path d="M257.113 393.619L295.691 277.259L248.727 387.4L257.113 393.619Z" fill="white"/>
<path d="M227.174 382.922L297.576 268.78L240.666 388.691L227.174 382.922Z" fill="white"/>
<path d="M213.114 369.935L290.681 269.99L220.398 381.246L213.114 369.935Z" fill="white"/>
<path d="M247.668 421.149C240.868 422.509 234.174 420.658 229.147 416.647C226.9 424.524 220.439 430.9 211.853 432.617C199.621 435.063 187.723 427.13 185.277 414.899C183.367 405.346 187.787 395.997 195.641 391.195C195.549 390.829 195.465 390.459 195.39 390.085C192.944 377.853 200.877 365.955 213.108 363.509C223.847 361.362 234.326 367.215 238.38 376.953C238.523 376.921 238.665 376.885 238.809 376.856C251.04 374.41 262.939 382.343 265.385 394.574C267.833 406.804 259.9 418.703 247.668 421.149Z" fill="#353434"/>
<path d="M244.841 427.627C238.041 428.987 231.347 427.136 226.32 423.125C224.073 431.002 217.612 437.378 209.026 439.095C196.795 441.541 184.896 433.608 182.45 421.377C180.54 411.824 184.96 402.475 192.815 397.673C192.723 397.307 192.638 396.937 192.564 396.563C190.118 384.332 198.051 372.433 210.282 369.987C221.021 367.84 231.5 373.693 235.554 383.431C235.697 383.4 235.839 383.363 235.983 383.334C248.215 380.888 260.113 388.821 262.559 401.052C265.005 413.282 257.073 425.181 244.841 427.627Z" fill="white"/>
<path d="M439.999 58.354L453.675 20.57L443.631 9L439.999 58.354Z" fill="#353434"/>
<path d="M585.306 260.341L453.615 278.778L577.877 254.077L585.306 260.341Z" fill="white"/>
<path d="M571.147 245.139L453.614 278.778L565.213 238.139L571.147 245.139Z" fill="white"/>
<path d="M563.194 258.848C561.289 258.777 559.363 258.421 557.472 257.751C547.443 254.198 542.193 243.187 545.747 233.159C548.149 226.379 553.961 221.788 560.573 220.62C560.506 218.308 560.852 215.946 561.671 213.636C565.224 203.607 576.234 198.357 586.263 201.911C592.074 203.97 596.275 208.534 598.094 213.958C600.578 213.815 603.131 214.154 605.624 215.037C615.653 218.59 620.903 229.601 617.349 239.63C615.971 243.519 613.469 246.684 610.341 248.901C612.571 254.296 612.895 260.501 610.792 266.437C606.272 279.194 592.267 285.872 579.509 281.352C569.657 277.86 563.437 268.71 563.194 258.848Z" fill="#353434"/>
<path d="M571.556 259.689C569.651 259.618 567.725 259.262 565.834 258.592C555.805 255.039 550.555 244.028 554.109 234C556.511 227.22 562.323 222.629 568.935 221.461C568.868 219.149 569.214 216.787 570.033 214.477C573.586 204.448 584.597 199.198 594.625 202.752C600.436 204.811 604.637 209.375 606.456 214.799C608.94 214.656 611.493 214.995 613.986 215.878C624.015 219.431 629.265 230.442 625.711 240.471C624.333 244.36 621.831 247.525 618.703 249.742C620.933 255.137 621.257 261.342 619.154 267.278C614.634 280.035 600.629 286.713 587.871 282.193C578.018 278.7 571.798 269.551 571.556 259.689Z" fill="white"/>
<path d="M487.376 380.654C487.376 380.654 427.544 284.122 429.386 287.027C431.228 289.932 484.611 392.741 484.432 391.252C484.253 389.763 487.376 380.654 487.376 380.654Z" fill="white"/>
<path d="M426.502 280.1L477.649 389.469L472.248 390.755L426.502 280.1Z" fill="white"/>
<path d="M422.563 277.854L470.248 396.742L457.334 398.273L422.563 277.854Z" fill="white"/>
<path d="M494.049 408.665C490.234 409.82 486.358 410.019 482.674 409.409C480.292 413.908 476.187 417.492 470.93 419.082C460.481 422.244 449.447 416.336 446.285 405.887C443.123 395.438 449.031 384.404 459.48 381.242C460.293 380.996 461.109 380.811 461.925 380.673C463.389 371.454 469.949 363.416 479.483 360.531C492.775 356.509 506.811 364.024 510.833 377.316C514.855 390.607 507.341 404.643 494.049 408.665Z" fill="#353434"/>
<path d="M496.75 416.217C492.934 417.372 489.059 417.571 485.375 416.961C482.994 421.46 478.888 425.044 473.631 426.634C463.182 429.796 452.148 423.888 448.986 413.439C445.824 402.99 451.732 391.956 462.181 388.794C462.994 388.548 463.81 388.363 464.626 388.225C466.09 379.006 472.65 370.968 482.184 368.083C495.476 364.061 509.512 371.576 513.534 384.868C517.557 398.159 510.042 412.195 496.75 416.217Z" fill="white"/>
<path d="M83.5217 6.27396C86.3657 5.67996 88.9127 5.20796 91.2407 5.11996C93.5737 5.02396 95.5477 5.36196 97.3187 6.17596C98.2167 6.57396 99.0766 7.12196 99.9496 7.75996C100.816 8.41596 101.661 9.20096 102.526 10.055C104.268 11.77 105.901 13.85 107.957 15.968L108.285 15.853C107.432 13.284 106.367 10.75 104.816 8.48796C104.044 7.35896 103.178 6.28496 102.171 5.34096C101.154 4.41196 100.013 3.59996 98.7496 3.01396C96.2046 1.84496 93.2727 1.75096 90.6147 2.40896C87.9367 3.05596 85.4536 4.31196 83.3036 6.00496L83.5217 6.27396Z" fill="#353434"/>
<path d="M41.6077 68.1338C41.4617 67.5338 41.3186 67.1348 41.1716 66.6878C41.0456 66.2418 40.8866 65.8558 40.7726 65.4558C40.5056 64.6868 40.3006 63.9728 40.1136 63.3198C39.7426 62.0058 39.5607 60.9208 39.4437 59.8268C39.3607 59.5608 39.3986 59.2718 39.3716 58.9888L39.3157 58.5588C39.3037 58.4128 39.3327 58.2618 39.3187 58.1098C39.3177 57.8038 39.2897 57.4958 39.2767 57.1668C39.3077 56.8408 39.3066 56.4998 39.3016 56.1458C39.3126 55.9718 39.2696 55.7838 39.2936 55.6018C39.3106 55.4188 39.3296 55.2358 39.3326 55.0418C39.3536 54.6608 39.3537 54.2588 39.3477 53.8378C39.3867 53.0068 39.4407 52.1338 39.3337 51.0788L39.0477 50.8818C38.5977 51.5728 38.1256 52.2558 37.6896 52.9618L37.1517 54.0888C36.9697 54.4638 36.7847 54.8378 36.6757 55.2448L36.2906 56.4408C36.1866 56.8468 36.1396 57.2678 36.0616 57.6808C36.0316 57.8888 35.9807 58.0958 35.9677 58.3058L35.9547 58.9398C35.9527 59.3628 35.9117 59.7878 35.9927 60.2078C36.1797 61.8968 36.8436 63.5148 37.8116 64.8838C38.3016 65.5648 38.8347 66.2158 39.4427 66.7868C39.7397 67.0798 40.0677 67.3378 40.3857 67.6028C40.6947 67.8518 41.0777 68.1258 41.3237 68.3328L41.6077 68.1338Z" fill="#353434"/>
<path d="M73.2456 59.6424C73.2456 59.6424 152.708 140.784 150.276 138.351C147.844 135.918 73.3046 47.2424 73.8046 48.6564C74.3046 50.0714 73.2456 59.6424 73.2456 59.6424Z" fill="white"/>
<path d="M154.603 144.482L80.8135 48.9164L85.8046 46.4824L154.603 144.482Z" fill="white"/>
<path d="M158.937 145.814L86.4485 40.2027L98.7166 35.8877L158.937 145.814Z" fill="white"/>
<path d="M60.6197 33.764C64.0907 31.804 67.8297 30.764 71.5577 30.555C72.8997 25.645 76.1237 21.251 80.9067 18.551C90.4137 13.184 102.472 16.541 107.838 26.048C113.205 35.555 109.848 47.613 100.341 52.979C99.6007 53.396 98.8447 53.755 98.0787 54.068C98.6627 63.384 94.0157 72.66 85.3407 77.557C73.2477 84.384 57.9097 80.114 51.0827 68.021C44.2567 55.928 48.5267 40.59 60.6197 33.764Z" fill="#353434"/>
<path d="M56.3347 26.9818C59.8057 25.0218 63.5447 23.9818 67.2727 23.7728C68.6147 18.8628 71.8387 14.4688 76.6217 11.7688C86.1287 6.40178 98.1868 9.75878 103.553 19.2658C108.92 28.7728 105.563 40.8308 96.0557 46.1968C95.3157 46.6138 94.5597 46.9728 93.7937 47.2858C94.3777 56.6018 89.7307 65.8778 81.0557 70.7748C68.9627 77.6018 53.6247 73.3318 46.7977 61.2388C39.9707 49.1458 44.2417 33.8088 56.3347 26.9818Z" fill="white"/>
<path d="M77.2097 172L6.58471 193.406L0.99768 181.999L77.2097 172Z" fill="#353434"/>
<path d="M568.741 287L518.999 287.024L565.292 294.735L568.741 287Z" fill="#353434"/>
<path d="M50.565 293.185L76.698 265L47.997 287.165L50.565 293.185Z" fill="#353434"/>
<path d="M201.855 253.035L107.819 315.522L100.663 311.083L201.855 253.035Z" fill="white"/>
<path d="M204.553 247.24L96.5685 306.416L93.0945 295.347L204.553 247.24Z" fill="white"/>
<path d="M121.415 332.454C120.673 333.982 119.689 335.425 118.462 336.726C111.959 343.628 101.094 343.951 94.1925 337.449C89.5265 333.053 87.8715 326.663 89.2955 320.851C87.3865 320.075 85.5845 318.943 83.9945 317.445C77.0935 310.942 76.7695 300.076 83.2725 293.175C87.0395 289.176 92.2725 287.391 97.3495 287.857C98.1265 285.78 99.3195 283.819 100.936 282.104C107.439 275.202 118.305 274.879 125.206 281.381C127.882 283.902 129.563 287.08 130.247 290.429C135.448 290.55 140.626 292.516 144.711 296.365C153.49 304.636 153.901 318.459 145.63 327.238C139.242 334.017 129.544 335.801 121.415 332.454Z" fill="#353434"/>
<path d="M112.906 330.565C112.164 332.093 111.181 333.536 109.954 334.837C103.451 341.739 92.5846 342.061 85.6836 335.558C81.0176 331.162 79.3626 324.773 80.7866 318.961C78.8776 318.185 77.0756 317.052 75.4856 315.554C68.5836 309.052 68.2606 298.186 74.7636 291.285C78.5316 287.286 83.7636 285.501 88.8406 285.967C89.6176 283.89 90.8106 281.928 92.4266 280.213C98.9296 273.312 109.796 272.989 116.697 279.492C119.373 282.013 121.055 285.191 121.739 288.539C126.94 288.66 132.117 290.626 136.202 294.475C144.981 302.747 145.393 316.569 137.121 325.348C130.733 332.128 121.036 333.912 112.906 330.565Z" fill="white"/>
<path d="M413.742 366.244L403.178 370.467L393.711 364.159L394.463 375.51L385.538 382.564L396.566 385.357L400.517 396.025L406.581 386.4L417.948 385.939L410.668 377.197L413.742 366.244Z" fill="white"/>
<path d="M69.2355 95.0878L62.7075 97.6978L56.8565 93.7988L57.3205 100.815L51.8055 105.175L58.6205 106.901L61.0625 113.494L64.8105 107.545L71.8354 107.26L67.3354 101.858L69.2355 95.0878Z" fill="white"/>
<path d="M521.467 133.577L518.055 136.267L513.904 134.981L515.408 139.057L512.902 142.607L517.244 142.437L519.846 145.917L521.026 141.735L525.14 140.336L521.527 137.922L521.467 133.577Z" fill="white"/>
<path d="M253.766 456.184L250.353 458.874L246.203 457.588L247.706 461.665L245.2 465.215L249.542 465.044L252.144 468.525L253.324 464.343L257.438 462.943L253.825 460.529L253.766 456.184Z" fill="white"/>
<path d="M307.118 436.645L300.122 451.12L284.23 453.562L295.835 464.69L293.246 480.558L307.415 472.96L321.707 480.326L318.859 464.502L330.281 453.186L314.352 451.004L307.118 436.645Z" fill="white"/>
<path d="M587.919 121.626L572.996 127.609L559.607 118.707L560.686 134.749L548.083 144.732L563.672 148.663L569.272 163.734L577.828 150.122L593.892 149.454L583.591 137.11L587.919 121.626Z" fill="white"/>
</svg>
