<svg width="762" height="656" viewBox="0 0 762 656" fill="none" xmlns="http://www.w3.org/2000/svg">
  <path
    d="M405.915 103.093L401.451 113.556L407.538 123.166L396.208 122.153L388.949 130.913L386.411 119.823L375.837 115.627L385.6 109.787L386.323 98.434L394.894 105.914L405.915 103.093Z"
    fill="white"/>
  <path
    d="M113.827 381.124L115.479 385.144L119.727 386.06L116.415 388.874L116.857 393.197L113.157 390.917L109.183 392.672L110.207 388.45L107.31 385.211L111.642 384.881L113.827 381.124Z"
    fill="white"/>
  <path
    d="M152.934 202.15C152.934 202.15 277.368 227.119 336.857 101.767C336.857 101.767 404.048 196.048 486.803 107.906C486.803 107.906 475.576 223.284 608.974 189.336C608.974 189.336 548.927 289.363 675.058 311.228C675.058 311.228 532.171 342.709 676.446 441.334C676.446 441.334 511.022 368.407 477.076 474.139C477.076 474.139 385.469 352.577 287.374 494.022C287.374 494.022 271.032 335.269 118.85 384.937C118.85 384.937 242.107 283.289 152.934 202.15Z"
    fill="#353434"/>
  <path
    d="M176.413 210.836C176.413 210.836 289.316 233.428 343.472 119.103C343.472 119.103 404.33 204.944 479.554 124.501C479.554 124.501 469.213 229.671 590.328 198.555C590.328 198.555 526.198 300.488 650.144 309.562C650.144 309.562 528.276 358.885 651.232 428.14C651.232 428.14 501.191 361.892 470.242 458.301C470.242 458.301 385.202 341.478 295.986 470.521C295.986 470.521 287.022 325.096 148.836 370.565C148.837 370.566 257.24 284.67 176.413 210.836Z"
    fill="white"/>
  <path
    d="M183.7 487.468C186.525 488.15 189.055 488.699 191.38 488.86C193.709 489.028 195.692 488.751 197.487 487.992C198.397 487.622 199.274 487.101 200.165 486.49C201.051 485.862 201.92 485.103 202.811 484.276C204.606 482.616 206.302 480.586 208.423 478.534L208.747 478.659C207.815 481.201 206.672 483.701 205.052 485.913C204.245 487.017 203.347 488.064 202.311 488.976C201.266 489.874 200.1 490.649 198.82 491.197C196.241 492.287 193.307 492.29 190.671 491.551C188.015 490.822 185.571 489.489 183.475 487.731L183.7 487.468Z"
    fill="#353434"/>
  <path
    d="M193.236 106.674C191.879 110.185 190.741 113.34 190.138 116.297C189.525 119.258 189.542 121.852 190.211 124.287C190.531 125.518 191.049 126.733 191.682 127.982C192.339 129.226 193.165 130.471 194.074 131.756C195.899 134.344 198.215 136.867 200.488 139.94L200.273 140.334C197.168 138.704 194.154 136.81 191.589 134.353C190.309 133.129 189.118 131.798 188.123 130.312C187.149 128.816 186.352 127.189 185.867 125.451C184.907 121.953 185.404 118.185 186.803 114.927C188.193 111.642 190.32 108.732 192.935 106.34L193.236 106.674Z"
    fill="#353434"/>
  <path
    d="M82.0533 234.409C78.5956 236.766 75.5635 238.937 73.147 241.264C70.7166 243.588 69.0965 245.973 68.1723 248.624C67.689 249.954 67.3976 251.392 67.1887 252.936C67.0043 254.489 66.9757 256.151 66.997 257.9C67.0361 261.42 67.5641 265.191 67.7068 269.438L67.2599 269.663C65.446 266.213 63.882 262.577 63.0844 258.709C62.6848 256.781 62.4351 254.811 62.4606 252.823C62.5127 250.84 62.8101 248.846 63.4625 246.95C64.7909 243.141 67.6222 240.006 70.9582 237.906C74.3035 235.774 78.087 234.453 81.9896 233.912L82.0533 234.409Z"
    fill="#353434"/>
  <path
    d="M143.716 424.343C143.552 424.938 143.396 425.333 143.237 425.776C143.096 426.218 142.926 426.599 142.8 426.995C142.51 427.756 142.283 428.462 142.075 429.109C141.664 430.411 141.449 431.49 141.298 432.58C141.207 432.843 141.236 433.134 141.2 433.415L141.131 433.843C141.115 433.988 141.139 434.14 141.12 434.292C141.11 434.598 141.073 434.905 141.049 435.233C141.07 435.559 141.059 435.9 141.044 436.254C141.05 436.428 141.001 436.615 141.019 436.797C141.03 436.979 141.044 437.164 141.042 437.358C141.051 437.739 141.038 438.14 141.019 438.561C141.033 439.393 141.059 440.266 140.919 441.317L140.628 441.505C140.199 440.8 139.748 440.104 139.335 439.383L138.832 438.24C138.661 437.859 138.488 437.48 138.392 437.07L138.044 435.863C137.953 435.454 137.919 435.031 137.854 434.616C137.83 434.407 137.785 434.199 137.779 433.989L137.786 433.355C137.797 432.932 137.769 432.505 137.864 432.089C138.102 430.406 138.817 428.809 139.826 427.47C140.337 426.805 140.889 426.17 141.515 425.619C141.822 425.335 142.157 425.087 142.483 424.831C142.8 424.593 143.19 424.329 143.443 424.131L143.716 424.343Z"
    fill="#353434"/>
  <path
    d="M75.8889 311.599C76.5505 312.332 76.9161 312.883 77.3738 313.486L78.6164 315.146C79.4022 316.197 80.1515 317.12 80.8856 317.856C81.6231 318.591 82.2938 319.148 82.9348 319.515C83.1132 319.58 83.2469 319.695 83.4036 319.772C83.5696 319.833 83.71 319.926 83.8751 319.979C84.1825 320.121 84.508 320.236 84.8572 320.336C86.2336 320.769 88.2584 320.965 90.6479 321.007C93.0577 321.062 95.7413 320.955 98.9204 321.344L99.1445 321.79C97.9455 322.412 96.7391 323.027 95.4902 323.561C94.2361 324.08 92.9446 324.515 91.6286 324.881C90.3026 325.205 88.9531 325.492 87.5665 325.541C86.1889 325.611 84.7725 325.531 83.4157 325.121C82.0661 324.704 80.8014 323.987 79.761 323.032C78.7214 322.074 77.9179 320.899 77.3078 319.659C76.6977 318.414 76.2668 317.099 75.9775 315.763C75.8374 315.094 75.7379 314.419 75.6546 313.745L75.5459 312.735C75.5151 312.421 75.4797 312.015 75.4387 311.813L75.8889 311.599Z"
    fill="#353434"/>
  <path
    d="M509.014 464.893C509.222 465.765 509.273 466.363 509.376 467.041L509.642 468.905C509.811 470.083 510.006 471.145 510.271 472.05C510.538 472.956 510.831 473.691 511.181 474.263C511.294 474.392 511.351 474.542 511.442 474.673C511.547 474.794 511.619 474.929 511.727 475.043C511.91 475.29 512.119 475.523 512.353 475.755C513.261 476.699 514.788 477.736 516.673 478.808C518.568 479.901 520.752 480.983 523.114 482.676L523.098 483.129C521.872 483.103 520.645 483.068 519.418 482.95C518.193 482.817 516.975 482.602 515.768 482.32C514.57 482.001 513.371 481.642 512.245 481.079C511.117 480.535 510.024 479.855 509.121 478.939C508.228 478.019 507.532 476.898 507.119 475.685C506.708 474.47 506.579 473.185 506.633 471.932C506.689 470.675 506.918 469.439 507.268 468.25C507.448 467.656 507.663 467.075 507.889 466.502L508.241 465.651C508.354 465.387 508.501 465.049 508.557 464.87L509.014 464.893Z"
    fill="#353434"/>
  <path
    d="M544.652 492.081C545.354 492.528 545.747 492.882 546.227 493.195C546.663 493.51 547.054 493.762 547.393 493.936C547.553 494.043 547.727 494.063 547.849 494.144C547.996 494.18 548.107 494.203 548.209 494.246C548.326 494.232 548.399 494.273 548.49 494.282C548.589 494.273 548.663 494.304 548.759 494.321C549.134 494.404 549.861 494.375 550.767 494.405C551.231 494.356 551.742 494.375 552.309 494.38C552.886 494.383 553.473 494.366 554.213 494.498L554.37 494.72L553.05 495.648C552.59 495.93 552.093 496.154 551.615 496.41C550.604 496.794 549.528 497.169 548.377 497.017C548.099 496.964 547.825 496.871 547.551 496.797C547.289 496.687 547.043 496.535 546.792 496.404C546.575 496.223 546.345 496.053 546.147 495.855C545.971 495.638 545.762 495.445 545.619 495.207C545.305 494.75 545.051 494.258 544.861 493.748C544.678 493.254 544.539 492.666 544.429 492.235L544.652 492.081Z"
    fill="#353434"/>
  <path
    d="M141.182 238.652C140.844 237.799 140.721 237.231 140.494 236.641C140.307 236.078 140.12 235.601 139.931 235.228C139.857 235.028 139.715 234.899 139.656 234.748C139.55 234.62 139.465 234.528 139.402 234.424C139.288 234.361 139.249 234.278 139.175 234.211C139.08 234.155 139.034 234.08 138.959 234.003C138.676 233.686 138.009 233.243 137.218 232.632C136.771 232.376 136.329 232.03 135.824 231.66C135.311 231.286 134.776 230.922 134.2 230.327L134.203 230.027L135.981 230.051C136.573 230.095 137.162 230.216 137.753 230.295C138.904 230.604 140.107 230.963 141.037 231.842C141.253 232.069 141.437 232.329 141.634 232.572C141.796 232.839 141.918 233.134 142.058 233.412C142.136 233.714 142.231 234.014 142.281 234.318C142.297 234.626 142.36 234.934 142.335 235.238C142.319 235.849 142.23 236.452 142.071 237.031C141.915 237.59 141.661 238.205 141.481 238.66L141.182 238.652Z"
    fill="#353434"/>
  <path
    d="M226.72 175.605C227.51 175.844 227.979 176.075 228.522 176.244C229.023 176.428 229.464 176.562 229.832 176.636C230.014 176.696 230.185 176.668 230.324 176.712C230.473 176.708 230.585 176.699 230.694 176.713C230.803 176.668 230.883 176.688 230.971 176.671C231.064 176.636 231.142 176.645 231.239 176.636C231.619 176.613 232.304 176.392 233.178 176.176C233.608 176.004 234.099 175.885 234.642 175.736C235.192 175.583 235.749 175.409 236.489 175.336L236.699 175.505L235.69 176.746C235.328 177.138 234.914 177.486 234.526 177.858C233.667 178.497 232.74 179.144 231.601 179.308C231.321 179.334 231.035 179.318 230.754 179.321C230.474 179.287 230.199 179.208 229.924 179.152C229.668 179.038 229.402 178.938 229.16 178.803C228.935 178.643 228.682 178.516 228.483 178.326C228.06 177.974 227.685 177.575 227.366 177.139C227.059 176.717 226.768 176.194 226.547 175.812L226.72 175.605Z"
    fill="#353434"/>
  <path d="M271.515 137.93L315.468 226.805L264.769 143.328L271.515 137.93Z" fill="white"/>
  <path d="M246.405 148.179L317.864 233.338L257.636 142.816L246.405 148.179Z" fill="white"/>
  <path d="M235.322 159.241L311.753 232.817L240.655 149.915L235.322 159.241Z" fill="white"/>
  <path
    d="M264.349 111.879C257.454 111.144 250.956 113.597 246.314 118.048C243.36 110.408 236.345 104.646 227.639 103.718C215.236 102.395 204.109 111.377 202.786 123.782C201.753 133.468 207.005 142.377 215.265 146.444C215.206 146.818 215.156 147.193 215.116 147.573C213.793 159.976 222.775 171.103 235.179 172.426C246.069 173.588 255.972 166.804 259.123 156.739C259.269 156.757 259.413 156.781 259.56 156.796C271.963 158.118 283.09 149.136 284.413 136.732C285.735 124.329 276.752 113.202 264.349 111.879Z"
    fill="#353434"/>
  <path
    d="M260.945 105.686C254.049 104.95 247.551 107.404 242.91 111.854C239.955 104.214 232.941 98.4527 224.234 97.5246C211.831 96.202 200.704 105.185 199.381 117.588C198.348 127.275 203.601 136.184 211.86 140.251C211.802 140.624 211.752 141 211.711 141.379C210.389 153.783 219.371 164.91 231.775 166.233C242.665 167.394 252.567 160.611 255.719 150.545C255.865 150.564 256.008 150.587 256.155 150.603C268.558 151.926 279.685 142.944 281.008 130.54C282.33 118.135 273.348 107.008 260.945 105.686Z"
    fill="white"/>
  <path
    d="M462.466 561.32C464.922 558.469 467.053 555.878 468.612 553.294C470.183 550.709 471.037 548.261 471.224 545.743C471.335 544.476 471.254 543.158 471.077 541.768C470.877 540.376 470.516 538.926 470.091 537.411C469.239 534.362 467.904 531.206 466.792 527.549L467.128 527.25C469.506 529.826 471.711 532.622 473.302 535.798C474.098 537.38 474.772 539.034 475.211 540.768C475.627 542.503 475.832 544.304 475.706 546.104C475.437 549.721 473.705 553.103 471.295 555.704C468.883 558.333 465.903 560.36 462.637 561.737L462.466 561.32Z"
    fill="#353434"/>
  <path
    d="M375.705 514.281C375.554 515.156 375.368 515.721 375.196 516.379L374.712 518.181C374.406 519.32 374.17 520.364 374.058 521.292C373.948 522.223 373.927 523.007 374.024 523.664C374.077 523.827 374.07 523.985 374.102 524.14C374.151 524.291 374.164 524.442 374.218 524.588C374.287 524.884 374.387 525.179 374.51 525.481C374.969 526.696 375.955 528.236 377.255 529.948C378.554 531.684 380.122 533.521 381.614 535.986L381.422 536.393C380.315 535.89 379.21 535.379 378.138 534.793C377.075 534.194 376.048 533.523 375.059 532.795C374.093 532.038 373.14 531.242 372.334 530.289C371.519 529.353 370.788 528.308 370.324 527.121C369.869 525.935 369.672 524.641 369.77 523.375C369.87 522.107 370.253 520.886 370.792 519.765C371.333 518.643 372.024 517.607 372.807 516.66C373.203 516.188 373.625 515.743 374.056 515.309L374.709 514.672C374.914 514.475 375.18 514.225 375.301 514.083L375.705 514.281Z"
    fill="#353434"/>
  <path
    d="M460.943 492.446C460.474 491.767 460.25 491.295 459.931 490.824C459.654 490.369 459.393 489.988 459.151 489.7C459.046 489.54 458.895 489.456 458.813 489.335C458.694 489.245 458.601 489.181 458.525 489.103C458.412 489.071 458.362 489.005 458.282 488.962C458.188 488.932 458.132 488.876 458.051 488.823C457.74 488.603 457.066 488.351 456.249 487.975C455.805 487.842 455.346 487.628 454.829 487.407C454.304 487.183 453.761 486.972 453.135 486.568L453.077 486.305L454.64 485.964C455.167 485.882 455.708 485.869 456.243 485.818C457.314 485.854 458.441 485.926 459.434 486.506C459.668 486.661 459.882 486.851 460.106 487.024C460.303 487.225 460.469 487.458 460.649 487.675C460.778 487.923 460.922 488.167 461.029 488.423C461.106 488.689 461.223 488.946 461.262 489.218C461.373 489.757 461.416 490.302 461.396 490.842C461.374 491.364 461.275 491.954 461.209 492.39L460.943 492.446Z"
    fill="#353434"/>
  <path d="M394.907 503.549L386.434 381.254L404.575 499.607L394.907 503.549Z" fill="white"/>
  <path d="M426.565 500.622L386.714 372.572L412.063 502.86L426.565 500.622Z" fill="white"/>
  <path d="M443.41 491.534L393.093 375.457L433.545 500.682L443.41 491.534Z" fill="white"/>
  <path
    d="M397.22 532.562C403.469 535.568 410.413 535.438 416.279 532.801C416.499 540.989 421.174 548.77 429.065 552.565C440.306 557.972 453.802 553.242 459.209 542.002C463.431 533.222 461.471 523.069 455.056 516.467C455.236 516.135 455.409 515.797 455.575 515.454C460.982 504.212 456.252 490.717 445.011 485.31C435.142 480.564 423.538 483.631 417.192 492.057C417.062 491.991 416.933 491.92 416.801 491.857C405.561 486.45 392.064 491.179 386.657 502.42C381.249 513.659 385.979 527.155 397.22 532.562Z"
    fill="#353434"/>
  <path
    d="M398.35 539.539C404.599 542.545 411.543 542.414 417.408 539.777C417.629 547.965 422.304 555.746 430.195 559.542C441.435 564.948 454.932 560.219 460.338 548.978C464.561 540.199 462.601 530.045 456.185 523.443C456.365 523.111 456.539 522.774 456.703 522.43C462.11 511.19 457.381 497.693 446.14 492.287C436.271 487.54 424.666 490.607 418.321 499.034C418.19 498.968 418.062 498.897 417.93 498.833C406.688 493.426 393.193 498.156 387.786 509.396C382.38 520.636 387.108 534.132 398.35 539.539Z"
    fill="white"/>
  <path d="M301.009 133.369L297.144 93.3726L309.747 84.6593L301.009 133.369Z" fill="#353434"/>
  <path d="M110.093 292.944L233.08 343.507L118.845 288.721L110.093 292.944Z" fill="white"/>
  <path d="M127.583 281.735L233.08 343.508L135.069 276.428L127.583 281.735Z" fill="white"/>
  <path
    d="M131.883 296.989C133.746 297.393 135.7 297.527 137.698 297.347C148.296 296.396 156.116 287.034 155.163 276.438C154.52 269.273 150.03 263.383 143.915 260.609C144.555 258.387 144.806 256.013 144.586 253.572C143.635 242.974 134.274 235.155 123.676 236.107C117.536 236.658 112.333 240.036 109.224 244.838C106.854 244.083 104.296 243.777 101.662 244.014C91.065 244.965 83.2451 254.327 84.1972 264.924C84.5662 269.034 86.2039 272.721 88.6833 275.645C85.1834 280.318 83.3286 286.248 83.8916 292.52C85.102 306 97.0099 315.947 110.491 314.737C120.901 313.8 129.199 306.482 131.883 296.989Z"
    fill="#353434"/>
  <path
    d="M123.574 295.727C125.437 296.132 127.391 296.265 129.389 296.086C139.987 295.135 147.807 285.772 146.854 275.176C146.211 268.012 141.721 262.121 135.607 259.348C136.246 257.125 136.497 254.751 136.277 252.31C135.326 241.713 125.964 233.893 115.367 234.845C109.227 235.397 104.024 238.774 100.915 243.577C98.5447 242.821 95.9875 242.516 93.3533 242.752C82.7561 243.703 74.9362 253.065 75.8883 263.663C76.2573 267.772 77.895 271.459 80.3744 274.384C76.8745 279.056 75.0197 284.986 75.5827 291.258C76.7931 304.738 88.701 314.685 102.182 313.475C112.594 312.538 120.891 305.22 123.574 295.727Z"
    fill="white"/>
  <path
    d="M175.076 433.807C175.076 433.807 257.006 355.157 254.501 357.514C251.995 359.871 174.753 446.202 175.296 444.804C175.839 443.406 175.076 433.807 175.076 433.807Z"
    fill="white"/>
  <path d="M259.016 351.521L182.311 444.762L187.223 447.349L259.016 351.521Z" fill="white"/>
  <path d="M263.389 350.323L187.674 453.645L199.803 458.336L263.389 350.323Z" fill="white"/>
  <path
    d="M161.657 459.284C165.066 461.35 168.771 462.505 172.491 462.829C173.681 467.779 176.768 472.27 181.465 475.116C190.802 480.774 202.957 477.791 208.615 468.454C214.273 459.118 211.29 446.962 201.953 441.305C201.227 440.864 200.483 440.482 199.726 440.146C200.598 430.852 196.239 421.437 187.72 416.275C175.844 409.078 160.381 412.872 153.184 424.749C145.987 436.625 149.78 452.087 161.657 459.284Z"
    fill="#353434"/>
  <path
    d="M157.165 465.929C160.575 467.996 164.279 469.151 167.999 469.475C169.188 474.424 172.276 478.916 176.973 481.761C186.31 487.419 198.465 484.436 204.123 475.1C209.781 465.763 206.798 453.608 197.461 447.95C196.735 447.51 195.99 447.128 195.234 446.792C196.106 437.498 191.747 428.083 183.228 422.92C171.351 415.724 155.889 419.518 148.692 431.394C141.494 443.27 145.288 458.732 157.165 465.929Z"
    fill="white"/>
  <path
    d="M659.252 171.447C656.645 170.165 654.295 169.075 652.062 168.412C649.825 167.74 647.829 167.577 645.912 167.926C644.943 168.088 643.974 168.405 642.97 168.807C641.968 169.227 640.955 169.778 639.905 170.39C637.791 171.619 635.693 173.228 633.175 174.769L632.886 174.576C634.35 172.3 636.011 170.109 638.075 168.303C639.104 167.402 640.209 166.576 641.419 165.912C642.635 165.265 643.942 164.761 645.311 164.507C648.066 164.007 650.93 164.644 653.341 165.941C655.775 167.233 657.868 169.067 659.53 171.24L659.252 171.447Z"
    fill="#353434"/>
  <path
    d="M684.491 241.778C684.782 241.233 685.019 240.882 685.273 240.486C685.505 240.085 685.755 239.75 685.965 239.391C686.415 238.713 686.791 238.072 687.134 237.486C687.82 236.305 688.265 235.299 688.65 234.269C688.797 234.032 688.832 233.742 688.928 233.475L689.089 233.072C689.137 232.934 689.146 232.78 689.198 232.636C689.275 232.34 689.378 232.049 689.473 231.733C689.524 231.41 689.609 231.08 689.702 230.738C689.734 230.567 689.823 230.395 689.845 230.213C689.874 230.032 689.901 229.85 689.946 229.661C690.02 229.287 690.12 228.897 690.231 228.491C690.399 227.676 690.564 226.817 690.929 225.822L691.255 225.702C691.519 226.483 691.807 227.262 692.054 228.054L692.295 229.28C692.379 229.688 692.465 230.096 692.469 230.518L692.545 231.772C692.545 232.191 692.486 232.61 692.459 233.03C692.437 233.239 692.435 233.452 692.395 233.658L692.25 234.276C692.147 234.686 692.081 235.108 691.899 235.495C691.298 237.084 690.253 238.487 688.975 239.572C688.332 240.11 687.654 240.609 686.923 241.011C686.562 241.221 686.181 241.389 685.807 241.567C685.446 241.732 685.006 241.902 684.717 242.041L684.491 241.778Z"
    fill="#353434"/>
  <path
    d="M655.953 225.695C655.953 225.695 558.83 284.562 561.79 282.81C564.75 281.057 658.975 213.669 658.14 214.915C657.304 216.161 655.953 225.695 655.953 225.695Z"
    fill="white"/>
  <path d="M556.076 287.673L651.286 213.425L647.056 209.828L556.076 287.673Z" fill="white"/>
  <path d="M551.547 287.888L647.991 203.586L637.179 196.36L551.547 287.888Z" fill="white"/>
  <path
    d="M674.61 203.764C671.734 201.003 668.371 199.067 664.811 197.939C664.731 192.849 662.699 187.792 658.736 183.989C650.86 176.429 638.346 176.687 630.787 184.563C623.227 192.44 623.485 204.954 631.362 212.512C631.975 213.1 632.618 213.636 633.282 214.129C630.403 223.008 632.601 233.148 639.788 240.046C649.807 249.662 665.725 249.335 675.341 239.316C684.956 229.297 684.629 213.379 674.61 203.764Z"
    fill="#353434"/>
  <path
    d="M680.445 198.259C677.569 195.498 674.206 193.562 670.647 192.434C670.566 187.344 668.534 182.287 664.571 178.484C656.695 170.924 644.181 171.182 636.622 179.058C629.062 186.935 629.32 199.449 637.196 207.008C637.81 207.595 638.453 208.131 639.117 208.624C636.238 217.503 638.436 227.643 645.623 234.541C655.642 244.157 671.56 243.83 681.176 233.811C690.792 223.792 690.464 207.875 680.445 198.259Z"
    fill="white"/>
  <path d="M624.211 333.549L687.307 371.823L695.552 362.161L624.211 333.549Z" fill="#353434"/>
  <path d="M119.518 322.882L167.696 335.258L120.939 331.231L119.518 322.882Z" fill="#353434"/>
  <path d="M619.926 457.555L601.611 423.763L623.909 452.361L619.926 457.555Z" fill="#353434"/>
  <path d="M483.346 381.092L558.918 464.974L566.952 462.451L483.346 381.092Z" fill="white"/>
  <path d="M482.171 374.808L572.078 458.946L578.192 449.087L482.171 374.808Z" fill="white"/>
  <path
    d="M541.544 477.999C541.883 479.663 542.477 481.305 543.343 482.87C547.928 491.171 558.373 494.182 566.673 489.597C572.284 486.498 575.474 480.719 575.538 474.735C577.58 474.458 579.607 473.809 581.519 472.753C589.819 468.167 592.831 457.722 588.246 449.422C585.59 444.613 580.964 441.584 575.93 440.775C575.693 438.57 575.025 436.374 573.885 434.312C569.3 426.011 558.855 423 550.555 427.584C547.337 429.362 544.918 432.022 543.424 435.097C538.356 433.922 532.853 434.541 527.94 437.255C517.382 443.087 513.551 456.375 519.383 466.933C523.887 475.086 532.839 479.222 541.544 477.999Z"
    fill="#353434"/>
  <path
    d="M550.256 478.282C550.595 479.947 551.189 481.589 552.054 483.154C556.64 491.454 567.085 494.466 575.385 489.88C580.996 486.781 584.186 481.002 584.25 475.018C586.292 474.741 588.319 474.092 590.231 473.035C598.531 468.451 601.543 458.005 596.957 449.705C594.301 444.896 589.676 441.867 584.642 441.058C584.405 438.853 583.737 436.657 582.597 434.594C578.012 426.295 567.566 423.282 559.267 427.868C556.048 429.645 553.63 432.306 552.136 435.379C547.068 434.205 541.565 434.824 536.652 437.538C526.094 443.371 522.262 456.657 528.095 467.215C532.599 475.369 541.549 479.506 550.256 478.282Z"
    fill="white"/>
  <path
    d="M249.982 438.134L259.167 444.849L269.904 441.089L266.356 451.898L273.25 460.947L261.874 460.914L255.397 470.267L251.913 459.437L241.017 456.168L250.24 449.508L249.982 438.134Z"
    fill="white"/>
  <path
    d="M651.035 261.026L656.71 265.175L663.346 262.852L661.154 269.533L665.414 275.126L658.384 275.105L654.381 280.885L652.228 274.192L645.494 272.171L651.194 268.056L651.035 261.026Z"
    fill="white"/>
  <path
    d="M203.412 186.005L206.049 189.458L210.39 189.243L207.921 192.818L209.467 196.879L205.303 195.636L201.918 198.361L201.814 194.017L198.176 191.64L202.275 190.199L203.412 186.005Z"
    fill="white"/>
  <path
    d="M382.612 564.985L385.25 568.438L389.589 568.223L387.121 571.799L388.667 575.86L384.503 574.617L381.118 577.342L381.014 572.998L377.376 570.621L381.475 569.179L382.612 564.985Z"
    fill="white"/>
  <path
    d="M335.783 532.809L338.966 548.568L353.754 554.88L339.749 562.777L338.316 578.791L326.477 567.912L310.805 571.499L317.492 556.877L309.239 543.079L325.211 544.922L335.783 532.809Z"
    fill="white"/>
  <path
    d="M142.01 157.926L154.98 167.428L170.16 162.129L165.131 177.401L174.86 190.201L158.783 190.138L149.616 203.346L144.708 188.035L129.313 183.399L142.357 174L142.01 157.926Z"
    fill="white"/>
</svg>
