<svg width="473" height="358" viewBox="0 0 473 358" fill="none" xmlns="http://www.w3.org/2000/svg">
<g clip-path="url(#clip0)">
<path d="M438.681 109.797C438.681 109.797 356.746 134.034 310.06 37.9404C310.06 37.9404 270.239 114.403 210.015 48.3639C210.015 48.3639 223.846 138.44 132.686 116.803C132.686 116.803 178.36 193.013 95.1169 214.88C95.1169 214.88 192.496 234.228 101.31 316.981C101.31 316.981 208.061 253.593 236.573 335.254C236.573 335.254 291.246 236.48 364.658 343.754C364.658 343.754 366.908 218.624 471.505 251.891C471.503 251.89 383.425 176.774 438.681 109.797Z" fill="#353434"/>
<path d="M423.766 117.566C423.766 117.566 349.334 139.584 306.924 52.2909C306.924 52.2909 270.751 121.751 216.042 61.7607C216.042 61.7607 228.607 143.588 145.795 123.932C145.795 123.932 194.223 201.153 111.668 213.027C111.668 213.027 195.96 246.889 117.293 305.777C117.293 305.777 214.268 248.194 240.169 322.377C240.169 322.377 290.884 227.761 357.572 325.21C357.572 325.21 355.786 211.166 450.802 241.386C450.801 241.385 373.571 178.409 423.766 117.566Z" fill="white"/>
<path d="M160.026 107.888L92.5919 9.40985L115.244 0.570005L160.026 107.888Z" fill="#353434"/>
<path d="M108.394 256.077L12.0748 295.761L2.67343 280.495L108.394 256.077Z" fill="#353434"/>
<path d="M17.7426 223.998L85.1624 243.615L25.4733 214.878L17.7426 223.998Z" fill="#353434"/>
<path d="M16.6789 146.99L16.4677 163.048L3.12004 171.977L18.3268 177.139L22.6934 192.593L32.3023 179.726L48.3493 180.348L39.0825 167.233L44.6313 152.163L29.295 156.925L16.6789 146.99Z" fill="white"/>
<path d="M188.392 329.011L179.574 333.565L170.823 328.883L172.43 338.678L165.273 345.554L175.084 347.051L179.413 355.982L183.869 347.115L193.7 345.759L186.643 338.78L188.392 329.011Z" fill="white"/>
<path d="M69.324 86.0782L64.8954 90.3216L58.8888 89.0791L61.5568 94.6027L58.5184 99.9314L64.5965 99.1006L68.726 103.638L69.8133 97.6007L75.4032 95.0755L69.9985 92.1746L69.324 86.0782Z" fill="white"/>
</g>
<defs>
<clipPath id="clip0">
<rect width="473" height="358" fill="white"/>
</clipPath>
</defs>
</svg>
