<svg width="40" height="40" viewBox="0 0 40 40" fill="none" xmlns="http://www.w3.org/2000/svg">
<path d="M35.3816 40H4.61764C2.07096 40 0 37.9287 0 35.3817V4.61792C0 2.07139 2.07096 0 4.61764 0H35.3816C37.9283 0 40 2.07139 40 4.61792V35.3818C40 37.9287 37.9283 40 35.3816 40ZM4.61764 1.77581C3.05047 1.77581 1.77537 3.05041 1.77537 4.61792V35.3818C1.77537 36.9487 3.05047 38.2244 4.61764 38.2244H35.3816C36.9488 38.2244 38.2241 36.9487 38.2241 35.3818V4.61792C38.2241 3.05041 36.9488 1.77581 35.3816 1.77581H4.61764ZM34.9265 34.9273H5.07282V5.073H34.9265V34.9273V34.9273ZM6.84886 33.1511H33.1501V6.84881H6.84886V33.1511Z" fill="#6D390C"/>
<path d="M35.3816 0.888184H4.61769C2.56115 0.888184 0.887207 2.56132 0.887207 4.61772V35.3816C0.887207 37.4379 2.56124 39.112 4.61769 39.112H35.3816C37.4385 39.112 39.1118 37.4378 39.1118 35.3816V4.61772C39.1118 2.56123 37.4385 0.888184 35.3816 0.888184ZM34.0386 34.0387H5.9607V5.96166H34.0387V34.0387H34.0386Z" fill="#AB5C16"/>
<path d="M39.1118 15.8727V4.61773C39.1118 2.56132 37.4386 0.888184 35.3816 0.888184H4.61769C2.56115 0.888184 0.887207 2.56132 0.887207 4.61773V26.217C2.46841 26.748 4.16938 27.1532 5.9607 27.423V5.96166H34.0387V20.7227C36.0544 19.2488 37.767 17.6117 39.1118 15.8727Z" fill="#B06518"/>
<path d="M34.0386 10.1631C36.2083 8.85401 37.9405 7.32938 39.1117 5.65528V4.61773C39.1117 2.56133 37.4385 0.888184 35.3815 0.888184H4.61769C2.56115 0.888184 0.887207 2.56133 0.887207 4.61773V12.9955C2.48054 13.4972 4.17893 13.9135 5.9607 14.2291V5.96166H34.0387V10.1631H34.0386Z" fill="#E0AE37"/>
<path opacity="0.5" d="M3.62845 36.0352L36.5765 35.3682L39.1131 37.4768L36.3812 39.2774C36.3812 39.2774 11.3112 39.422 6.67253 39.5904C2.03349 39.7596 1.75146 37.9266 1.75146 37.9266L3.62845 36.0352Z" fill="#6D390C"/>
<path d="M36.5754 35.3818C36.5754 36.0406 36.0408 36.5752 35.3817 36.5752H4.6177C3.95813 36.5752 3.42358 36.0407 3.42358 35.3818V4.61803C3.42358 3.95828 3.95813 3.42432 4.6177 3.42432H35.3817C36.0408 3.42432 36.5754 3.95838 36.5754 4.61803V35.3818Z" fill="url(#paint0_linear)"/>
<path d="M35.3817 35.9362H4.6177C3.95813 35.9362 3.42358 35.4009 3.42358 34.7427V35.3682C3.42358 36.0278 3.95813 36.5623 4.6177 36.5623H35.3817C36.0408 36.5623 36.5754 36.0278 36.5754 35.3682V34.7427C36.5754 35.4009 36.0408 35.9362 35.3817 35.9362Z" fill="#FDFAC5"/>
<path d="M35.3817 3.48828H4.6177C3.95813 3.48828 3.42358 4.02301 3.42358 4.68237V5.25005C3.42358 4.59088 3.95813 4.05539 4.6177 4.05539H35.3817C36.0408 4.05539 36.5754 4.59078 36.5754 5.25005V4.68237C36.5754 4.02301 36.0408 3.48828 35.3817 3.48828Z" fill="#FDFAC5"/>
<path opacity="0.32" d="M34.3789 30.6821C34.0007 31.0945 33.5855 31.4496 33.1603 31.792C32.7345 32.1308 32.2931 32.4472 31.8399 32.7464C31.3867 33.0452 30.9216 33.3244 30.4415 33.5818C29.9602 33.8366 29.4678 34.077 28.9395 34.2606C29.3168 33.8468 29.7325 33.4913 30.1564 33.1496C30.5832 32.8103 31.0248 32.4939 31.4774 32.1959C31.9319 31.8982 32.3974 31.6181 32.8769 31.3614C33.3596 31.1067 33.85 30.8661 34.3789 30.6821Z" fill="#6D390C"/>
<path d="M34.519 30.5166C34.519 30.5166 32.7052 32.3284 31.2604 33.114C29.8143 33.898 28.8018 34.2606 28.8018 34.2606C28.8018 34.2606 30.4173 33.8873 31.6605 33.1985C32.9034 32.5101 34.519 30.5166 34.519 30.5166Z" fill="#FAEFD2"/>
<path d="M33.1824 31.5757C33.1824 31.5757 31.2354 32.6777 30.9474 32.8567C30.6596 33.0353 29.6155 33.7859 29.6155 33.7859C29.6155 33.7859 31.8813 33.0056 33.1824 31.5757Z" fill="#6D390C"/>
<path opacity="0.32" d="M16.4032 6.18359C15.6212 6.8122 14.7885 7.3284 13.9441 7.81911C13.0954 8.30322 12.2278 8.74435 11.3439 9.15063C10.4604 9.55624 9.55938 9.92431 8.63927 10.2508C7.71706 10.571 6.7811 10.8634 5.79395 11.0432C6.575 10.4143 7.40829 9.89738 8.25285 9.40668C9.10095 8.92295 9.96796 8.48114 10.8532 8.07745C11.7367 7.67251 12.6383 7.30443 13.5584 6.97809C14.4822 6.65921 15.4163 6.36524 16.4032 6.18359Z" fill="#6D390C"/>
<path d="M16.6974 5.92969C16.6974 5.92969 12.9909 8.64621 10.2176 9.64318C7.44476 10.6402 5.55029 11.0074 5.55029 11.0074C5.55029 11.0074 8.51443 10.7849 10.9029 9.90334C13.2919 9.02107 16.6974 5.92969 16.6974 5.92969Z" fill="#FAEFD2"/>
<path d="M14.0413 7.44336C14.0413 7.44336 10.2923 8.86465 9.73311 9.10275C9.1743 9.34208 7.12158 10.3875 7.12158 10.3875C7.12158 10.3875 11.347 9.62229 14.0413 7.44336Z" fill="#6D390C"/>
<path d="M36.8043 15.0386L35.0306 16.3869L33.9446 16.9141C33.9446 16.9141 34.7397 16.6809 35.0388 16.613C35.3376 16.5439 36.2251 16.1544 36.4189 16.3466C36.6129 16.5375 36.601 17.6171 36.7271 17.4027C36.8523 17.189 36.8043 15.0386 36.8043 15.0386Z" fill="#6D390C"/>
<path d="M35.0389 16.6131L33.9214 16.9975C33.9214 16.9975 34.9802 16.8076 35.0359 16.7925C35.0934 16.7783 36.2805 16.3795 36.3104 16.2989C36.3402 16.2183 35.0389 16.6131 35.0389 16.6131Z" fill="#F3D632"/>
<path d="M36.813 13.4116C36.813 13.4116 35.2436 15.8109 35.1136 15.9261C34.985 16.0425 33.9446 16.9142 33.9446 16.9142L35.0306 16.387L36.7984 15.2143L36.813 13.4116Z" fill="#B06518"/>
<path d="M39.2013 13.9513C39.1469 13.8386 36.8046 15.0387 36.8046 15.0387L36.7273 17.4028L39.1485 18.3674C39.1484 18.3674 39.8043 15.205 39.2013 13.9513Z" fill="#6D390C"/>
<path d="M3.14453 35.7516C3.14453 35.7516 4.77846 35.4404 5.04883 33.8878C5.31845 32.3346 3.65702 32.2646 3.65702 32.2646L3.14453 35.7516Z" fill="#B06518"/>
<path d="M4.85678 33.6545C4.57083 34.3948 3.89771 34.7071 3.89771 34.7071C3.89771 34.7071 3.95931 34.7546 3.968 35.0006C3.97659 35.2467 4.01699 35.4041 4.01699 35.4041C4.01699 35.4041 4.85716 34.9274 5.02525 34.2043C5.19315 33.4817 4.98533 33.0581 4.98533 33.0581C4.98533 33.0581 4.91237 33.5118 4.85678 33.6545Z" fill="#B06518"/>
<path d="M0.69043 31.5566C0.69043 31.5566 3.96047 32.2942 4.13439 32.3585C4.30802 32.4233 5.12498 33.1117 5.07121 33.4276C5.01811 33.7433 4.78775 34.4321 4.78775 34.4321C4.78775 34.4321 4.56665 32.9048 4.35778 32.8993C4.14977 32.8932 3.77567 33.4091 3.25554 33.6502C2.73541 33.8918 0.690525 34.0574 0.690525 34.0574V31.5566H0.69043Z" fill="#6D390C"/>
<path d="M16.9001 37.1688L17.6052 36.604L15.7615 36.6271L16.229 37.0958L16.1502 39.1026L16.8808 39.1022L17.5869 38.6962L16.9673 38.463L16.9001 37.1688Z" fill="#6D390C"/>
<path d="M19.832 38.9424C19.832 38.9424 18.0774 39.0705 18.22 38.8936C18.3626 38.7166 18.3292 38.4459 18.1236 38.4295C17.9189 38.4138 17.1154 37.9691 17.1827 37.9139C17.2493 37.8576 17.3333 37.0706 17.3333 37.0706C17.3333 37.0706 18.0018 37.1357 19.3686 36.9185C20.7364 36.7013 17.0566 36.9876 18.0627 36.5752L17.605 36.604L16.8999 37.1689L16.9672 38.463L17.5867 38.6963L16.9323 39.2775L19.832 38.9424Z" fill="#AB5C16"/>
<path d="M8.03755 1.41656C4.86683 1.10903 4.42884 0.876098 3.21762 1.41656C2.36313 1.798 2.61288 3.07537 3.94557 3.07537C5.27827 3.07537 11.2082 1.72456 8.03755 1.41656Z" fill="#FAEFD2"/>
<path d="M31.5645 1.23544C30.2607 1.20822 13.6178 1.14051 11.9379 1.23544C10.257 1.33066 9.781 2.25055 10.8915 2.56696C12.001 2.88432 29.3068 2.72578 31.4026 2.28226C33.4986 1.83826 33.5309 1.27822 31.5645 1.23544Z" fill="#FAEFD2"/>
<g clip-path="url(#clip0)" filter="url(#filter0_i)">
<path d="M26.4411 16.7127C24.9415 15.5348 23.4643 14.358 21.9703 13.1802C21.3223 12.6818 21.0073 12.0484 21.1389 11.2294C21.1614 11.0258 21.0478 10.9571 20.8239 11.0258C20.3087 11.1833 19.8834 11.4791 19.637 11.955C19.2995 12.6345 18.7652 12.8843 18.0902 12.8618C17.081 12.8157 16.4555 13.3613 15.9178 14.133C15.3328 14.952 15.0459 15.9038 14.822 16.8567C14.5756 17.8782 14.4609 18.9008 14.4204 19.9403C14.3743 20.7357 14.3979 21.5075 14.3743 22.2983C14.3743 22.3445 14.3743 22.3681 14.3743 22.3906V24.5H24.2755V22.9092C24.2755 22.9092 24.3553 22.2398 23.8603 21.7493C23.3653 21.2588 22.8399 20.7998 22.8399 20.7998C22.5868 20.5928 22.3562 20.3566 22.1571 20.0989L20.3312 17.7364C20.4448 17.8287 20.5551 17.9164 20.6687 18.0087C21.2301 18.4384 21.8331 18.6196 22.5261 18.4384C22.9277 18.3462 23.3338 18.3923 23.6904 18.6184C23.8896 18.7512 24.1101 18.8659 24.3317 18.9807C24.8526 19.2507 25.4938 19.1269 25.8685 18.6769C26.0991 18.4002 26.3297 18.1234 26.5603 17.8512C26.854 17.5036 26.8 16.9939 26.4411 16.7127Z" fill="#7F4A13"/>
<path d="M25.5658 28.1866L24.4408 25.9355C24.3452 25.7454 24.1506 25.625 23.9379 25.625H14.9379C14.7253 25.625 14.5306 25.7454 14.435 25.9355L13.31 28.1855C13.2223 28.3599 13.2324 28.5669 13.3348 28.7323C13.4371 28.8976 13.6183 29 13.8129 29H25.063C25.2576 29 25.4387 28.8988 25.5422 28.7334C25.6446 28.568 25.6536 28.361 25.5658 28.1866Z" fill="#7F4A13"/>
</g>
<defs>
<filter id="filter0_i" x="11" y="11" width="18" height="22" filterUnits="userSpaceOnUse" color-interpolation-filters="sRGB">
<feFlood flood-opacity="0" result="BackgroundImageFix"/>
<feBlend mode="normal" in="SourceGraphic" in2="BackgroundImageFix" result="shape"/>
<feColorMatrix in="SourceAlpha" type="matrix" values="0 0 0 0 0 0 0 0 0 0 0 0 0 0 0 0 0 0 127 0" result="hardAlpha"/>
<feOffset dy="4"/>
<feGaussianBlur stdDeviation="2"/>
<feComposite in2="hardAlpha" operator="arithmetic" k2="-1" k3="1"/>
<feColorMatrix type="matrix" values="0 0 0 0 0 0 0 0 0 0 0 0 0 0 0 0 0 0 0.5 0"/>
<feBlend mode="normal" in2="shape" result="effect1_innerShadow"/>
</filter>
<linearGradient id="paint0_linear" x1="28.3973" y1="57.251" x2="13.5587" y2="-8.5732" gradientUnits="userSpaceOnUse">
<stop stop-color="#F7E436"/>
<stop offset="1" stop-color="#CE7C1D"/>
</linearGradient>
<clipPath id="clip0">
<rect width="18" height="18" fill="white" transform="translate(11 11)"/>
</clipPath>
</defs>
</svg>
